<?xml version="1.0" encoding="utf-8"?>
<!-- Generator: Adobe Illustrator 15.1.0, SVG Export Plug-In . SVG Version: 6.00 Build 0)  -->
<!DOCTYPE svg PUBLIC "-//W3C//DTD SVG 1.1//EN" "http://www.w3.org/Graphics/SVG/1.1/DTD/svg11.dtd">
<svg version="1.1" id="Layer_1" xmlns="http://www.w3.org/2000/svg" xmlns:xlink="http://www.w3.org/1999/xlink" x="0px" y="0px"
	 width="17px" height="61.253px" viewBox="0 0 17 61.253" enable-background="new 0 0 17 61.253" xml:space="preserve">
<path fill="#DB4B64" d="M4.839,13.509c-0.424,0-0.825-0.196-1.083-0.533L0.275,8.422c-0.453-0.593-0.335-1.436,0.263-1.884
	c0.599-0.449,1.45-0.331,1.903,0.26L4.73,9.793l5.759-9.159c0.396-0.63,1.234-0.823,1.871-0.431
	c0.636,0.393,0.831,1.222,0.435,1.853L5.992,12.875c-0.236,0.376-0.644,0.613-1.091,0.633C4.88,13.508,4.86,13.509,4.839,13.509z"/>
<path fill="#FFFFFF" d="M6.328,61.253c-0.554,0-1.079-0.257-1.416-0.697L0.36,54.602c-0.592-0.775-0.438-1.877,0.344-2.464
	c0.783-0.587,1.896-0.433,2.488,0.341l2.994,3.916l7.531-11.977c0.518-0.824,1.613-1.076,2.447-0.563
	c0.833,0.513,1.087,1.598,0.568,2.423L7.836,60.424c-0.309,0.492-0.842,0.801-1.426,0.828C6.382,61.253,6.355,61.253,6.328,61.253z"
	/>
<path fill="#FFFFFF" d="M4.839,36.342c-0.424,0-0.825-0.196-1.083-0.533l-3.481-4.554c-0.453-0.593-0.335-1.436,0.263-1.884
	c0.599-0.449,1.45-0.331,1.903,0.26l2.289,2.995l5.759-9.159c0.396-0.63,1.234-0.823,1.871-0.431
	c0.636,0.393,0.831,1.222,0.435,1.853L5.992,35.708c-0.236,0.376-0.644,0.613-1.091,0.633C4.88,36.342,4.86,36.342,4.839,36.342z"/>
</svg>
