<?xml version="1.0" encoding="utf-8"?>
<!-- Generator: Adobe Illustrator 15.1.0, SVG Export Plug-In . SVG Version: 6.00 Build 0)  -->
<!DOCTYPE svg PUBLIC "-//W3C//DTD SVG 1.1//EN" "http://www.w3.org/Graphics/SVG/1.1/DTD/svg11.dtd">
<svg version="1.1" id="Layer_1" xmlns="http://www.w3.org/2000/svg" xmlns:xlink="http://www.w3.org/1999/xlink" x="0px" y="0px"
	 width="224px" height="86.905px" viewBox="0 0 224 86.905" enable-background="new 0 0 224 86.905" xml:space="preserve">
<g>
	<path fill="#E84564" d="M20.575,19.069c-1.167-3.107-3.402-7.029-7.666-10.38c-0.458,1.019-1.176,1.893-2.069,2.543
		c8.52,6.623,7.996,15.95,7.964,16.409l3.28,0.247C22.097,27.725,22.365,23.836,20.575,19.069"/>
	<path fill="#E84564" d="M54.059,11.353c-0.838-0.728-1.427-1.732-1.625-2.871c-5.56,3.61-8.287,8.227-9.621,11.779
		c-1.791,4.768-1.522,8.656-1.51,8.819l3.281-0.247C44.575,28.714,43.913,18.071,54.059,11.353"/>
	<path fill="#93DFDC" d="M61.849,71.601c0,1.696-13.845,3.07-30.925,3.07C13.845,74.671,0,73.297,0,71.601
		c0-1.695,13.845-3.07,30.924-3.07C48.004,68.53,61.849,69.905,61.849,71.601"/>
	<path fill="#E84564" d="M30.164,39.146c-0.026-0.039-0.053-0.078-0.08-0.117c-0.004-0.006-0.009-0.013-0.014-0.019
		c-0.03,0.045-0.062,0.088-0.093,0.133L30.164,39.146z M55.812,48.447c-0.125-7.802-1.252-15.66-1.252-15.66
		c0-4.417-3.581-7.997-7.997-7.997c0,0-7.804-1-15.877-1c-8.65,0-17.611,1-17.611,1c-4.417,0-7.997,3.581-7.997,7.997
		c0,0-1.125,7.768-1.25,15.524c-0.125,7.737-0.25,15.465-0.25,15.465c0,4.416,4.58,7.997,8.997,7.997c0,0,9.282,0.5,17.851,0.5
		c8.165,0,16.637-0.5,16.637-0.5c4.417,0,8.997-3.581,8.997-7.997C56.06,63.776,55.937,56.139,55.812,48.447 M40.066,64.775
		c-4.499,1-6.892,1-10.658,1c-3.326,0-5.354,0.113-9.335-1C16.092,63.663,9.577,59.89,9.577,50.78s4.699-18.993,10.496-18.993
		c3.195,0,7.119,3.002,9.998,7.222c2.879-4.219,6.801-7.222,9.996-7.222c5.797,0,10.496,9.883,10.496,18.993
		S44.564,63.776,40.066,64.775"/>
	<path fill="#F6D100" d="M31.24,10.694c-0.432,0.126-0.684,0.585-0.559,1.021l1.853,6.465c0.125,0.436,0.011,0.491-0.253,0.124
		l-6.356-8.831c-0.264-0.367-0.126-0.77,0.306-0.896l2.491-0.724c0.432-0.126,0.684-0.585,0.559-1.021l-1.853-6.464
		c-0.125-0.436-0.011-0.492,0.253-0.125l6.356,8.832c0.265,0.367,0.126,0.77-0.306,0.896L31.24,10.694z"/>
	<path fill-rule="evenodd" clip-rule="evenodd" fill="#1E4C4D" d="M25.43,43.2c-2.073,0-3.752,2.465-3.752,5.505
		s1.68,4.003,3.752,4.003c2.073,0,3.753-0.963,3.753-4.003S27.503,43.2,25.43,43.2 M26.181,47.704c-0.829,0-1.501-0.672-1.501-1.501
		s0.672-1.501,1.501-1.501s1.501,0.672,1.501,1.501S27.01,47.704,26.181,47.704"/>
	<path fill-rule="evenodd" clip-rule="evenodd" fill="#1E4C4D" d="M34.833,43.2c-2.072,0-3.752,2.465-3.752,5.505
		s1.68,4.003,3.752,4.003c2.073,0,3.753-0.963,3.753-4.003S36.906,43.2,34.833,43.2 M35.584,47.704
		c-0.829,0-1.501-0.672-1.501-1.501s0.672-1.501,1.501-1.501s1.501,0.672,1.501,1.501S36.413,47.704,35.584,47.704"/>
	<path fill="#E84564" d="M57.284,3.695c-2.177,0-3.941,1.764-3.941,3.941s1.764,3.941,3.941,3.941s3.941-1.765,3.941-3.941
		S59.461,3.695,57.284,3.695"/>
	<path fill="#E84564" d="M7.11,1.05c-2.785,0-5.043,2.258-5.043,5.043s2.258,5.043,5.043,5.043s5.043-2.258,5.043-5.043
		S9.896,1.05,7.11,1.05"/>
	<path fill="#B3354D" d="M75.103,42.996c-0.843,1.53-1.595,2.678-2.255,3.442c-0.662,0.765-1.199,1.147-1.614,1.147
		c-0.57,0-0.855-0.655-0.855-1.965c0-1.271,0.182-2.411,0.544-3.422c0.363-1.012,0.872-1.909,1.526-2.693
		c0.655-0.785,1.433-1.452,2.333-2.003c0.901-0.551,1.886-1.004,2.956-1.361c1.07-0.356,2.201-0.619,3.394-0.788
		c1.192-0.168,2.417-0.253,3.675-0.253c1.465,0,2.936,0.107,4.414,0.321c1.478,0.214,2.897,0.515,4.259,0.904
		c1.361,0.389,2.631,0.859,3.812,1.41c1.179,0.552,2.207,1.161,3.082,1.828c0.875,0.668,1.562,1.39,2.062,2.168
		c0.499,0.777,0.749,1.588,0.749,2.431c0,0.998-0.217,1.983-0.651,2.956c-0.435,0.972-1.115,1.851-2.042,2.635
		c-0.927,0.784-2.113,1.429-3.559,1.935c-1.446,0.506-3.179,0.778-5.202,0.816c1.283,0,2.404,0.204,3.364,0.612
		c0.959,0.409,1.763,0.96,2.411,1.653c0.648,0.693,1.134,1.494,1.458,2.401c0.324,0.908,0.486,1.861,0.486,2.859
		c0,0.816-0.11,1.646-0.331,2.488c-0.22,0.844-0.551,1.653-0.992,2.431c-0.441,0.778-0.992,1.508-1.653,2.188
		s-1.436,1.273-2.324,1.779c-0.888,0.505-1.889,0.904-3.004,1.195c-1.115,0.292-2.34,0.438-3.675,0.438
		c-0.843,0-1.73-0.055-2.664-0.165s-1.876-0.26-2.83-0.447c-0.953-0.188-1.89-0.411-2.81-0.671c-0.921-0.26-1.789-0.538-2.606-0.836
		c-0.363-0.091-0.684-0.227-0.963-0.408c-0.278-0.182-0.418-0.506-0.418-0.973c0-2.152,0.055-4.355,0.166-6.611
		c0.11-2.256,0.333-4.46,0.671-6.611c0.337-2.152,0.823-4.204,1.458-6.155c0.635-1.951,1.478-3.697,2.528-5.24
		c0.92-0.636,1.756-0.953,2.508-0.953c0.946,0,1.737,0.531,2.372,1.595c-0.597,0.804-1.105,1.698-1.526,2.684
		s-0.775,2.019-1.06,3.102c-0.285,1.082-0.515,2.188-0.69,3.315c-0.175,1.128-0.314,2.229-0.418,3.306
		c-0.065,0.609-0.12,1.258-0.165,1.944c-0.046,0.688-0.088,1.388-0.126,2.101c-0.039,0.713-0.068,1.423-0.087,2.129
		c-0.02,0.707-0.029,1.385-0.029,2.032c0,0.104,0.003,0.247,0.01,0.428c0.006,0.182,0.022,0.369,0.049,0.564
		c0.026,0.194,0.064,0.372,0.117,0.534c0.051,0.162,0.129,0.282,0.233,0.36c0.791,0.259,1.64,0.479,2.548,0.661
		c0.907,0.182,1.815,0.271,2.723,0.271c1.101,0,2.171-0.133,3.208-0.398s1.958-0.687,2.762-1.264
		c0.803-0.577,1.448-1.315,1.935-2.217c0.486-0.901,0.729-1.993,0.729-3.276c0-0.752-0.143-1.378-0.428-1.877
		s-0.658-0.917-1.118-1.254c-0.46-0.337-0.985-0.606-1.575-0.808c-0.59-0.2-1.193-0.382-1.809-0.544s-1.218-0.321-1.808-0.477
		s-1.115-0.354-1.575-0.593c-0.46-0.24-0.833-0.538-1.118-0.895s-0.428-0.82-0.428-1.391c0-0.272,0.017-0.509,0.048-0.71
		c0.033-0.2,0.11-0.366,0.234-0.496c0.123-0.129,0.304-0.227,0.544-0.292c0.24-0.064,0.567-0.097,0.981-0.097
		c0.558,0,1.066,0.022,1.527,0.068c0.46,0.045,0.956,0.067,1.488,0.067c1.244,0,2.369-0.151,3.374-0.457
		c1.005-0.304,1.86-0.716,2.567-1.234s1.251-1.125,1.633-1.818c0.383-0.693,0.574-1.436,0.574-2.227
		c0-0.518-0.149-0.995-0.448-1.429c-0.298-0.435-0.716-0.823-1.254-1.167c-0.539-0.344-1.17-0.645-1.896-0.904
		c-0.726-0.26-1.517-0.477-2.373-0.651s-1.757-0.305-2.703-0.389c-0.946-0.085-1.906-0.127-2.878-0.127
		c-1.232,0-2.447,0.068-3.646,0.204c-1.199,0.137-2.314,0.344-3.345,0.623c-1.031,0.278-1.944,0.628-2.742,1.05
		C76.124,41.949,75.518,42.438,75.103,42.996"/>
	<path fill="#B3354D" d="M116.095,51.455c0,0.351-0.039,0.826-0.117,1.43c-0.078,0.603-0.178,1.264-0.301,1.983
		c-0.123,0.719-0.256,1.462-0.398,2.227s-0.275,1.478-0.398,2.139c-0.124,0.661-0.224,1.241-0.302,1.74
		c-0.078,0.499-0.116,0.846-0.116,1.041c0,0.363,0.006,0.696,0.019,1.001s0.052,0.571,0.117,0.797
		c0.064,0.228,0.165,0.402,0.301,0.525s0.334,0.185,0.593,0.185c0.285,0,0.632-0.071,1.04-0.214
		c0.409-0.143,0.843-0.333,1.303-0.573c0.459-0.24,0.93-0.512,1.41-0.816s0.937-0.626,1.371-0.963s0.829-0.671,1.186-1.001
		c0.357-0.331,0.646-0.639,0.866-0.924c0,0.428,0.003,0.816,0.01,1.166c0.006,0.351,0.01,0.685,0.01,1.002s0.003,0.645,0.009,0.981
		c0.007,0.338,0.011,0.714,0.011,1.128c-0.286,0.286-0.639,0.59-1.061,0.914c-0.421,0.324-0.888,0.648-1.399,0.973
		c-0.513,0.324-1.057,0.635-1.634,0.934c-0.577,0.298-1.157,0.561-1.74,0.787c-0.583,0.228-1.161,0.408-1.731,0.545
		c-0.57,0.136-1.102,0.204-1.595,0.204s-0.914-0.098-1.264-0.292s-0.651-0.467-0.904-0.816c-0.253-0.351-0.467-0.769-0.642-1.255
		c-0.175-0.485-0.327-1.027-0.457-1.623c-0.466,0.609-0.959,1.17-1.478,1.682c-0.519,0.513-1.047,0.956-1.584,1.332
		c-0.539,0.376-1.083,0.672-1.634,0.885c-0.551,0.214-1.086,0.321-1.604,0.321c-0.427,0-0.83-0.071-1.206-0.214
		s-0.709-0.383-1.001-0.72c-0.292-0.337-0.522-0.78-0.69-1.332c-0.169-0.551-0.253-1.235-0.253-2.052
		c0-0.998,0.12-2.269,0.359-3.812c0.24-1.543,0.535-3.306,0.885-5.289c0.026-0.194,0.075-0.457,0.146-0.787
		c0.071-0.331,0.168-0.69,0.291-1.079c0.123-0.39,0.275-0.785,0.458-1.187c0.181-0.402,0.395-0.765,0.642-1.089
		c0.246-0.324,0.535-0.59,0.865-0.798c0.331-0.207,0.703-0.317,1.118-0.33c0.687,0.025,1.18,0.113,1.478,0.263
		c0.298,0.148,0.447,0.333,0.447,0.554c-0.117,0.688-0.243,1.452-0.379,2.295s-0.276,1.691-0.418,2.547
		c-0.143,0.856-0.278,1.688-0.408,2.499c-0.129,0.811-0.246,1.533-0.35,2.168c-0.104,0.636-0.185,1.147-0.243,1.536
		c-0.059,0.39-0.087,0.591-0.087,0.604c0,0.233,0.022,0.457,0.068,0.671s0.113,0.405,0.204,0.573
		c0.091,0.169,0.208,0.305,0.35,0.408c0.143,0.104,0.312,0.156,0.505,0.156c0.285,0,0.577-0.075,0.875-0.225
		c0.298-0.148,0.58-0.362,0.846-0.642c0.266-0.278,0.502-0.622,0.71-1.03c0.207-0.408,0.363-0.871,0.467-1.391l1.925-9.878
		c0.064-0.312,0.327-0.574,0.787-0.788c0.46-0.214,0.982-0.32,1.565-0.32c0.661,0,1.186,0.116,1.575,0.35
		C115.9,50.794,116.095,51.093,116.095,51.455"/>
	<path fill="#B3354D" d="M119.634,61.393c0.727-0.623,1.316-1.142,1.771-1.556c0.453-0.415,0.842-0.795,1.166-1.138
		c0.324-0.344,0.619-0.69,0.885-1.041c0.266-0.35,0.58-0.765,0.943-1.244c0.362-0.479,0.804-1.066,1.322-1.76
		s1.192-1.559,2.022-2.596c0.168-0.233,0.356-0.461,0.564-0.682c0.207-0.22,0.437-0.418,0.689-0.593s0.531-0.317,0.836-0.428
		s0.645-0.165,1.021-0.165c0.622,0,1.102,0.068,1.439,0.204c0.336,0.136,0.583,0.302,0.738,0.496
		c0.156,0.194,0.246,0.398,0.272,0.612c0.025,0.214,0.038,0.398,0.038,0.555c0,0.311-0.123,0.654-0.369,1.03
		s-0.519,0.739-0.816,1.089c-0.299,0.35-0.58,0.671-0.846,0.963c-0.266,0.291-0.418,0.509-0.457,0.651
		c0,0.401,0.029,0.768,0.088,1.099c0.058,0.33,0.136,0.654,0.232,0.972c0.098,0.318,0.198,0.655,0.302,1.012
		s0.204,0.768,0.302,1.234c0.097,0.467,0.175,1.005,0.233,1.614s0.087,1.329,0.087,2.158c0.467-0.311,0.969-0.593,1.508-0.846
		c0.537-0.253,1.099-0.516,1.682-0.787c0.584-0.272,1.183-0.574,1.799-0.904c0.615-0.331,1.234-0.729,1.857-1.196l0.02,4.355
		c-0.805,0.623-1.734,1.206-2.791,1.75c-1.057,0.545-2.165,1.024-3.325,1.439s-2.334,0.742-3.52,0.982
		c-1.187,0.239-2.312,0.359-3.374,0.359c-0.766,0-1.478-0.071-2.139-0.214s-1.242-0.366-1.74-0.671
		c-0.5-0.305-0.905-0.703-1.216-1.196c-0.312-0.492-0.499-1.089-0.564-1.789c-0.182,0.04-0.359,0.065-0.534,0.078
		c-0.176,0.014-0.348,0.02-0.516,0.02c-0.207,0-0.401-0.006-0.583-0.02c-0.182-0.013-0.338-0.062-0.467-0.146
		c-0.13-0.084-0.233-0.221-0.312-0.408c-0.078-0.188-0.116-0.457-0.116-0.808c0-0.311,0.078-0.6,0.233-0.865
		c0.155-0.266,0.337-0.502,0.544-0.71c0.207-0.207,0.415-0.389,0.622-0.544C119.375,61.605,119.53,61.482,119.634,61.393
		 M122.123,63.881c0.155,0,0.327,0.098,0.516,0.292c0.188,0.194,0.405,0.408,0.651,0.642s0.531,0.447,0.855,0.642
		s0.693,0.292,1.108,0.292c0.506,0,0.924-0.084,1.255-0.253c0.33-0.168,0.593-0.392,0.787-0.671c0.194-0.278,0.33-0.603,0.408-0.973
		c0.078-0.369,0.116-0.755,0.116-1.156c0-0.351-0.022-0.707-0.067-1.07c-0.046-0.362-0.104-0.709-0.175-1.04
		c-0.071-0.33-0.149-0.642-0.233-0.933c-0.085-0.292-0.159-0.542-0.224-0.749L122.123,63.881z"/>
	<path fill="#B3354D" d="M147.033,53.925c0.104-0.44,0.288-0.833,0.554-1.177c0.266-0.343,0.57-0.632,0.914-0.865
		s0.703-0.408,1.079-0.524c0.376-0.117,0.732-0.176,1.069-0.176c0.402,0,0.739,0.088,1.012,0.263s0.408,0.451,0.408,0.827
		c0,0.116-0.02,0.252-0.059,0.408c-0.077,0.337-0.175,0.797-0.291,1.38c-0.117,0.584-0.243,1.245-0.379,1.984
		c-0.137,0.738-0.276,1.52-0.418,2.343c-0.144,0.823-0.279,1.644-0.409,2.46c-0.324,1.919-0.654,3.979-0.991,6.184
		c0.389-0.22,0.81-0.492,1.264-0.816s0.959-0.759,1.517-1.303c0.558-0.545,1.18-1.229,1.867-2.052
		c0.687-0.823,1.458-1.851,2.313-3.082l0.934,4.316c-0.233,0.402-0.534,0.814-0.904,1.235c-0.369,0.421-0.777,0.843-1.225,1.264
		c-0.447,0.422-0.914,0.83-1.4,1.226s-0.963,0.768-1.43,1.117c-1.102,0.83-2.288,1.634-3.558,2.412
		c-0.247,1.387-0.538,2.738-0.876,4.054c-0.337,1.316-0.735,2.548-1.195,3.695c-0.461,1.146-0.985,2.2-1.575,3.16
		c-0.591,0.959-1.258,1.782-2.003,2.469c-0.746,0.688-1.578,1.223-2.499,1.604c-0.921,0.383-1.938,0.574-3.053,0.574
		c-0.441,0-0.917-0.046-1.43-0.137c-0.512-0.091-0.985-0.271-1.419-0.544c-0.435-0.272-0.794-0.661-1.079-1.167
		s-0.429-1.18-0.429-2.022c0-0.583,0.149-1.241,0.447-1.974c0.299-0.732,0.707-1.504,1.226-2.314
		c0.519-0.81,1.134-1.652,1.848-2.527c0.712-0.875,1.487-1.747,2.324-2.615c0.835-0.869,1.71-1.725,2.624-2.567
		s1.838-1.646,2.771-2.411l0.525-1.809c-0.7,0.622-1.43,1.125-2.188,1.507c-0.759,0.383-1.494,0.574-2.207,0.574
		c-0.622,0-1.229-0.127-1.817-0.38c-0.591-0.252-1.112-0.615-1.566-1.089c-0.453-0.473-0.816-1.05-1.088-1.73
		c-0.273-0.681-0.409-1.448-0.409-2.305c0-1.128,0.056-2.164,0.165-3.11c0.11-0.946,0.27-1.848,0.477-2.704
		c0.207-0.855,0.467-1.682,0.778-2.479c0.312-0.798,0.667-1.604,1.069-2.421c0.298-0.584,0.727-1.027,1.283-1.332
		c0.558-0.305,1.102-0.457,1.634-0.457c0.453,0,0.843,0.113,1.167,0.34c0.323,0.227,0.486,0.581,0.486,1.06
		c0,0.144-0.017,0.299-0.049,0.467c-0.033,0.169-0.088,0.351-0.166,0.545c-0.232,0.597-0.463,1.3-0.69,2.109
		c-0.227,0.811-0.428,1.641-0.603,2.489c-0.175,0.85-0.314,1.683-0.418,2.499s-0.155,1.536-0.155,2.158
		c0,0.324,0.022,0.639,0.067,0.943c0.046,0.305,0.127,0.577,0.243,0.816c0.117,0.24,0.272,0.435,0.468,0.584
		c0.193,0.148,0.439,0.224,0.738,0.224c0.479,0,0.914-0.208,1.303-0.623c0.39-0.414,0.726-0.913,1.012-1.497
		c0.285-0.583,0.515-1.187,0.689-1.809c0.176-0.622,0.289-1.141,0.341-1.556L147.033,53.925z M137.933,83.172
		c0.544,0,1.06-0.159,1.546-0.477c0.486-0.318,0.934-0.736,1.342-1.255s0.78-1.108,1.118-1.77c0.337-0.661,0.635-1.339,0.895-2.032
		c0.259-0.693,0.479-1.37,0.661-2.031c0.182-0.662,0.323-1.252,0.428-1.77c-0.506,0.337-1.021,0.738-1.546,1.205
		c-0.525,0.467-1.037,0.969-1.536,1.507s-0.973,1.092-1.42,1.663c-0.447,0.57-0.839,1.118-1.177,1.643
		c-0.337,0.525-0.603,1.015-0.797,1.469c-0.194,0.453-0.291,0.829-0.291,1.128C137.155,82.932,137.414,83.172,137.933,83.172"/>
	<path fill="#B3354D" d="M164.398,42.996c-0.843,1.53-1.595,2.678-2.256,3.442s-1.198,1.147-1.614,1.147
		c-0.569,0-0.855-0.655-0.855-1.965c0-1.271,0.182-2.411,0.545-3.422c0.363-1.012,0.872-1.909,1.526-2.693
		c0.655-0.785,1.433-1.452,2.333-2.003c0.901-0.551,1.887-1.004,2.956-1.361c1.069-0.356,2.2-0.619,3.394-0.788
		c1.192-0.168,2.418-0.253,3.676-0.253c1.464,0,2.936,0.107,4.414,0.321c1.478,0.214,2.897,0.515,4.258,0.904
		c1.361,0.389,2.632,0.859,3.812,1.41c1.18,0.552,2.207,1.161,3.082,1.828c0.875,0.668,1.562,1.39,2.062,2.168
		c0.499,0.777,0.749,1.588,0.749,2.431c0,0.998-0.218,1.983-0.651,2.956c-0.435,0.972-1.115,1.851-2.042,2.635
		s-2.113,1.429-3.559,1.935c-1.446,0.506-3.18,0.778-5.202,0.816c1.283,0,2.405,0.204,3.364,0.612
		c0.959,0.409,1.763,0.96,2.411,1.653s1.135,1.494,1.459,2.401c0.323,0.908,0.485,1.861,0.485,2.859c0,0.816-0.109,1.646-0.33,2.488
		c-0.221,0.844-0.551,1.653-0.992,2.431c-0.44,0.778-0.991,1.508-1.652,2.188s-1.437,1.273-2.324,1.779
		c-0.888,0.505-1.89,0.904-3.004,1.195c-1.115,0.292-2.341,0.438-3.675,0.438c-0.844,0-1.731-0.055-2.664-0.165
		c-0.934-0.11-1.877-0.26-2.83-0.447c-0.953-0.188-1.89-0.411-2.81-0.671c-0.921-0.26-1.789-0.538-2.606-0.836
		c-0.362-0.091-0.684-0.227-0.962-0.408c-0.279-0.182-0.418-0.506-0.418-0.973c0-2.152,0.055-4.355,0.165-6.611
		s0.334-4.46,0.671-6.611c0.337-2.152,0.823-4.204,1.458-6.155s1.479-3.697,2.528-5.24c0.92-0.636,1.757-0.953,2.509-0.953
		c0.945,0,1.736,0.531,2.372,1.595c-0.597,0.804-1.105,1.698-1.526,2.684c-0.422,0.985-0.774,2.019-1.06,3.102
		c-0.285,1.082-0.516,2.188-0.69,3.315c-0.176,1.128-0.314,2.229-0.418,3.306c-0.065,0.609-0.12,1.258-0.166,1.944
		c-0.045,0.688-0.087,1.388-0.126,2.101s-0.068,1.423-0.088,2.129c-0.019,0.707-0.029,1.385-0.029,2.032
		c0,0.104,0.004,0.247,0.011,0.428c0.006,0.182,0.022,0.369,0.048,0.564c0.026,0.194,0.064,0.372,0.117,0.534
		c0.052,0.162,0.129,0.282,0.233,0.36c0.79,0.259,1.64,0.479,2.547,0.661s1.814,0.271,2.723,0.271c1.102,0,2.172-0.133,3.208-0.398
		c1.037-0.266,1.958-0.687,2.762-1.264s1.448-1.315,1.936-2.217c0.485-0.901,0.729-1.993,0.729-3.276
		c0-0.752-0.143-1.378-0.428-1.877s-0.658-0.917-1.118-1.254s-0.985-0.606-1.575-0.808c-0.59-0.2-1.192-0.382-1.809-0.544
		c-0.615-0.162-1.219-0.321-1.808-0.477c-0.591-0.155-1.115-0.354-1.576-0.593c-0.46-0.24-0.833-0.538-1.117-0.895
		c-0.285-0.356-0.429-0.82-0.429-1.391c0-0.272,0.017-0.509,0.049-0.71c0.032-0.2,0.11-0.366,0.233-0.496
		c0.123-0.129,0.305-0.227,0.545-0.292c0.239-0.064,0.566-0.097,0.981-0.097c0.558,0,1.066,0.022,1.527,0.068
		c0.459,0.045,0.955,0.067,1.487,0.067c1.244,0,2.369-0.151,3.373-0.457c1.005-0.304,1.86-0.716,2.567-1.234
		s1.251-1.125,1.634-1.818c0.382-0.693,0.573-1.436,0.573-2.227c0-0.518-0.149-0.995-0.447-1.429
		c-0.298-0.435-0.717-0.823-1.254-1.167c-0.538-0.344-1.171-0.645-1.896-0.904s-1.517-0.477-2.372-0.651s-1.757-0.305-2.703-0.389
		c-0.946-0.085-1.905-0.127-2.878-0.127c-1.231,0-2.447,0.068-3.646,0.204c-1.2,0.137-2.314,0.344-3.346,0.623
		c-1.03,0.278-1.944,0.628-2.741,1.05C165.419,41.949,164.813,42.438,164.398,42.996"/>
	<path fill="#B3354D" d="M202.784,54.294c0.376,0.752,0.658,1.546,0.846,2.383c0.188,0.836,0.282,1.637,0.282,2.401
		s-0.084,1.536-0.253,2.314c-0.168,0.777-0.412,1.529-0.729,2.255c-0.318,0.727-0.707,1.407-1.167,2.042
		c-0.46,0.636-0.985,1.187-1.575,1.653s-1.235,0.836-1.936,1.108c-0.699,0.271-1.445,0.408-2.235,0.408
		c-1.142,0-2.117-0.249-2.927-0.749c-0.811-0.499-1.476-1.15-1.993-1.954c-0.519-0.804-0.898-1.711-1.138-2.723
		c-0.24-1.011-0.36-2.035-0.36-3.072c0-1.426,0.215-2.758,0.642-3.996c0.428-1.237,1.041-2.313,1.838-3.228
		c0.798-0.914,1.772-1.634,2.927-2.159c1.153-0.524,2.45-0.787,3.89-0.787c1.231,0,2.385,0.191,3.461,0.573
		c1.075,0.383,2.084,0.895,3.023,1.536c0.94,0.643,1.815,1.378,2.625,2.208c0.811,0.829,1.566,1.685,2.266,2.566l-0.369,2.742
		c-0.35-0.467-0.823-0.973-1.42-1.518c-0.596-0.544-1.228-1.075-1.896-1.594s-1.325-1.008-1.974-1.469
		c-0.648-0.46-1.206-0.846-1.673-1.157L202.784,54.294z M196.775,65.126c0.44,0,0.868-0.224,1.283-0.671s0.778-1.012,1.089-1.692
		c0.312-0.681,0.561-1.432,0.749-2.255c0.188-0.823,0.282-1.611,0.282-2.363c0-0.596-0.046-1.15-0.136-1.662
		c-0.091-0.513-0.228-0.956-0.409-1.332s-0.415-0.675-0.699-0.896c-0.286-0.22-0.63-0.33-1.031-0.33
		c-0.532,0-1.037,0.228-1.517,0.681c-0.48,0.454-0.901,1.034-1.265,1.74c-0.362,0.707-0.647,1.487-0.855,2.343
		c-0.207,0.856-0.311,1.68-0.311,2.47c0,0.545,0.052,1.058,0.155,1.537s0.266,0.897,0.486,1.254s0.512,0.642,0.875,0.855
		C195.835,65.019,196.27,65.126,196.775,65.126"/>
	<path fill="#B3354D" d="M224,64.503c-1.245,0.727-2.354,1.361-3.325,1.906c-0.973,0.544-1.838,0.998-2.597,1.361
		c-0.758,0.363-1.432,0.635-2.021,0.816c-0.591,0.182-1.126,0.272-1.604,0.272c-0.985,0-1.854-0.298-2.605-0.895
		c-0.752-0.597-1.381-1.455-1.887-2.576c-0.506-1.122-0.885-2.479-1.138-4.074s-0.379-3.391-0.379-5.387
		c0-0.777,0.032-1.607,0.097-2.489c0.064-0.881,0.156-1.756,0.272-2.625c-0.389-0.052-0.69-0.101-0.904-0.146
		c-0.214-0.046-0.44-0.091-0.681-0.137c-0.24-0.045-0.544-0.094-0.914-0.146c-0.369-0.052-0.904-0.117-1.604-0.194
		c-0.311-0.039-0.55-0.113-0.719-0.224s-0.292-0.24-0.37-0.389c-0.077-0.149-0.123-0.305-0.136-0.467s-0.02-0.302-0.02-0.418
		c0-0.26,0.126-0.457,0.38-0.594c0.252-0.136,0.576-0.236,0.972-0.302c0.396-0.064,0.829-0.1,1.303-0.106
		c0.474-0.006,0.927-0.003,1.361,0.01s0.823,0.022,1.167,0.029s0.58-0.003,0.709-0.029c0.351-1.75,0.795-3.445,1.332-5.085
		c0.538-1.64,1.141-3.098,1.809-4.375c0.668-1.276,1.397-2.301,2.188-3.072c0.791-0.771,1.621-1.157,2.489-1.157
		c0.558,0,1.066,0.156,1.526,0.467c0.461,0.312,0.853,0.726,1.177,1.245s0.574,1.125,0.749,1.818
		c0.175,0.694,0.263,1.417,0.263,2.168c0,0.636-0.091,1.306-0.272,2.013s-0.428,1.426-0.739,2.158
		c-0.311,0.732-0.678,1.476-1.099,2.227c-0.421,0.752-0.865,1.497-1.332,2.236c0.117,0.014,0.312,0.022,0.584,0.029
		c0.271,0.007,0.586,0.017,0.942,0.029s0.742,0.029,1.157,0.049s0.816,0.035,1.206,0.048c0.389,0.014,0.751,0.026,1.089,0.039
		c0.337,0.014,0.615,0.026,0.836,0.039c0.26,0.013,0.447,0.143,0.563,0.39c0.117,0.246,0.176,0.557,0.176,0.933
		c0,0.454-0.13,0.823-0.39,1.108c-0.259,0.285-0.544,0.428-0.855,0.428h-7.467c-0.376,0.519-0.756,1.027-1.138,1.526
		c-0.383,0.5-0.736,0.95-1.06,1.352c-0.052,0.804-0.098,1.595-0.137,2.373c-0.013,0.337-0.025,0.684-0.039,1.04
		c-0.013,0.356-0.025,0.71-0.039,1.06c-0.013,0.351-0.021,0.688-0.028,1.011c-0.007,0.325-0.01,0.623-0.01,0.896
		c0,0.7,0.064,1.29,0.194,1.77s0.317,0.872,0.564,1.177c0.246,0.304,0.547,0.524,0.903,0.66c0.356,0.137,0.756,0.204,1.196,0.204
		c0.272,0,0.612-0.064,1.021-0.194c0.408-0.129,0.855-0.308,1.342-0.534c0.485-0.227,0.998-0.496,1.535-0.808
		c0.538-0.311,1.07-0.651,1.595-1.021c0.525-0.369,1.027-0.759,1.508-1.167c0.479-0.408,0.913-0.826,1.303-1.254V64.503z
		 M217.777,39.885c0-0.143-0.01-0.301-0.029-0.476c-0.02-0.175-0.062-0.34-0.127-0.496c-0.064-0.155-0.165-0.285-0.301-0.389
		c-0.137-0.104-0.328-0.155-0.574-0.155c-0.337,0-0.678,0.298-1.021,0.895c-0.344,0.597-0.674,1.358-0.992,2.285
		c-0.317,0.927-0.615,1.947-0.894,3.062c-0.279,1.115-0.535,2.197-0.769,3.247c0.194,0.026,0.389,0.049,0.583,0.068
		s0.396,0.042,0.604,0.068c0.389-0.661,0.794-1.377,1.215-2.149c0.421-0.771,0.801-1.529,1.138-2.275
		c0.337-0.745,0.615-1.441,0.836-2.09S217.777,40.3,217.777,39.885"/>
	<path fill="#E84564" d="M75.103,41.271c-0.843,1.53-1.595,2.678-2.255,3.442c-0.662,0.766-1.199,1.147-1.614,1.147
		c-0.57,0-0.855-0.654-0.855-1.965c0-1.27,0.182-2.411,0.544-3.422c0.363-1.011,0.872-1.909,1.526-2.693
		c0.655-0.784,1.433-1.451,2.333-2.003c0.901-0.551,1.886-1.004,2.956-1.361c1.07-0.356,2.201-0.619,3.394-0.788
		c1.192-0.168,2.417-0.253,3.675-0.253c1.465,0,2.936,0.107,4.414,0.321c1.478,0.213,2.897,0.515,4.259,0.904
		c1.361,0.389,2.631,0.859,3.812,1.41c1.179,0.551,2.207,1.161,3.082,1.828c0.875,0.668,1.562,1.391,2.062,2.168
		c0.499,0.778,0.749,1.589,0.749,2.431c0,0.999-0.217,1.983-0.651,2.956c-0.435,0.973-1.115,1.851-2.042,2.635
		c-0.927,0.784-2.113,1.43-3.559,1.936c-1.446,0.505-3.179,0.777-5.202,0.816c1.283,0,2.404,0.204,3.364,0.612
		c0.959,0.408,1.763,0.96,2.411,1.653c0.648,0.693,1.134,1.494,1.458,2.401c0.324,0.907,0.486,1.86,0.486,2.858
		c0,0.816-0.11,1.646-0.331,2.489s-0.551,1.652-0.992,2.431c-0.441,0.777-0.992,1.507-1.653,2.188s-1.436,1.273-2.324,1.779
		c-0.888,0.506-1.889,0.904-3.004,1.196c-1.115,0.291-2.34,0.438-3.675,0.438c-0.843,0-1.73-0.056-2.664-0.166
		s-1.876-0.259-2.83-0.447c-0.953-0.188-1.89-0.411-2.81-0.671c-0.921-0.26-1.789-0.537-2.606-0.836
		c-0.363-0.09-0.684-0.227-0.963-0.408c-0.278-0.182-0.418-0.506-0.418-0.973c0-2.151,0.055-4.355,0.166-6.611
		c0.11-2.256,0.333-4.46,0.671-6.611c0.337-2.152,0.823-4.204,1.458-6.154c0.635-1.951,1.478-3.698,2.528-5.241
		c0.92-0.635,1.756-0.952,2.508-0.952c0.946,0,1.737,0.531,2.372,1.594c-0.597,0.804-1.105,1.698-1.526,2.684
		s-0.775,2.02-1.06,3.102c-0.285,1.083-0.515,2.188-0.69,3.315c-0.175,1.128-0.314,2.23-0.418,3.306
		c-0.065,0.61-0.12,1.259-0.165,1.945c-0.046,0.687-0.088,1.387-0.126,2.1c-0.039,0.713-0.068,1.423-0.087,2.13
		c-0.02,0.706-0.029,1.384-0.029,2.032c0,0.104,0.003,0.246,0.01,0.427c0.006,0.183,0.022,0.37,0.049,0.564
		c0.026,0.194,0.064,0.373,0.117,0.535c0.051,0.162,0.129,0.281,0.233,0.359c0.791,0.26,1.64,0.479,2.548,0.661
		c0.907,0.182,1.815,0.272,2.723,0.272c1.101,0,2.171-0.133,3.208-0.399c1.037-0.265,1.958-0.687,2.762-1.264
		c0.803-0.576,1.448-1.315,1.935-2.217c0.486-0.9,0.729-1.993,0.729-3.276c0-0.752-0.143-1.378-0.428-1.877
		c-0.285-0.498-0.658-0.917-1.118-1.254c-0.46-0.337-0.985-0.605-1.575-0.807s-1.193-0.383-1.809-0.545s-1.218-0.321-1.808-0.477
		s-1.115-0.353-1.575-0.593c-0.46-0.239-0.833-0.538-1.118-0.895s-0.428-0.82-0.428-1.391c0-0.272,0.017-0.509,0.048-0.709
		c0.033-0.201,0.11-0.367,0.234-0.496c0.123-0.13,0.304-0.227,0.544-0.292c0.24-0.064,0.567-0.098,0.981-0.098
		c0.558,0,1.066,0.023,1.527,0.068c0.46,0.046,0.956,0.068,1.488,0.068c1.244,0,2.369-0.152,3.374-0.457s1.86-0.716,2.567-1.235
		c0.707-0.518,1.251-1.124,1.633-1.818c0.383-0.693,0.574-1.435,0.574-2.226c0-0.519-0.149-0.995-0.448-1.43
		c-0.298-0.435-0.716-0.823-1.254-1.167c-0.539-0.343-1.17-0.645-1.896-0.904c-0.726-0.259-1.517-0.476-2.373-0.651
		c-0.855-0.175-1.757-0.304-2.703-0.389c-0.946-0.084-1.906-0.126-2.878-0.126c-1.232,0-2.447,0.068-3.646,0.204
		c-1.199,0.136-2.314,0.344-3.345,0.623c-1.031,0.278-1.944,0.628-2.742,1.05C76.124,40.225,75.518,40.715,75.103,41.271"/>
	<path fill="#E84564" d="M116.095,49.73c0,0.351-0.039,0.827-0.117,1.43c-0.078,0.603-0.178,1.264-0.301,1.983
		s-0.256,1.462-0.398,2.227c-0.143,0.766-0.275,1.478-0.398,2.139c-0.124,0.661-0.224,1.242-0.302,1.741
		c-0.078,0.499-0.116,0.846-0.116,1.04c0,0.363,0.006,0.697,0.019,1.002c0.013,0.304,0.052,0.57,0.117,0.797
		c0.064,0.227,0.165,0.401,0.301,0.524c0.136,0.124,0.334,0.186,0.593,0.186c0.285,0,0.632-0.071,1.04-0.214
		c0.409-0.143,0.843-0.334,1.303-0.574c0.459-0.239,0.93-0.512,1.41-0.816s0.937-0.625,1.371-0.963
		c0.435-0.337,0.829-0.671,1.186-1.001c0.357-0.331,0.646-0.639,0.866-0.924c0,0.428,0.003,0.816,0.01,1.167
		c0.006,0.35,0.01,0.684,0.01,1.001c0,0.318,0.003,0.646,0.009,0.982c0.007,0.337,0.011,0.713,0.011,1.128
		c-0.286,0.285-0.639,0.59-1.061,0.913c-0.421,0.325-0.888,0.649-1.399,0.973c-0.513,0.324-1.057,0.636-1.634,0.934
		c-0.577,0.299-1.157,0.561-1.74,0.787c-0.583,0.228-1.161,0.409-1.731,0.545s-1.102,0.204-1.595,0.204s-0.914-0.098-1.264-0.292
		s-0.651-0.467-0.904-0.816s-0.467-0.768-0.642-1.254c-0.175-0.486-0.327-1.027-0.457-1.624c-0.466,0.609-0.959,1.17-1.478,1.682
		c-0.519,0.513-1.047,0.957-1.584,1.332c-0.539,0.377-1.083,0.672-1.634,0.885c-0.551,0.214-1.086,0.321-1.604,0.321
		c-0.427,0-0.83-0.071-1.206-0.214c-0.376-0.142-0.709-0.382-1.001-0.72c-0.292-0.337-0.522-0.78-0.69-1.332
		c-0.169-0.551-0.253-1.234-0.253-2.052c0-0.998,0.12-2.269,0.359-3.811c0.24-1.543,0.535-3.307,0.885-5.29
		c0.026-0.194,0.075-0.457,0.146-0.787c0.071-0.331,0.168-0.69,0.291-1.079c0.123-0.39,0.275-0.784,0.458-1.187
		c0.181-0.401,0.395-0.765,0.642-1.089c0.246-0.324,0.535-0.59,0.865-0.797c0.331-0.208,0.703-0.318,1.118-0.331
		c0.687,0.026,1.18,0.113,1.478,0.263c0.298,0.149,0.447,0.334,0.447,0.554c-0.117,0.688-0.243,1.452-0.379,2.295
		s-0.276,1.692-0.418,2.548s-0.278,1.688-0.408,2.498c-0.129,0.811-0.246,1.533-0.35,2.168c-0.104,0.636-0.185,1.148-0.243,1.537
		s-0.087,0.59-0.087,0.603c0,0.233,0.022,0.457,0.068,0.671s0.113,0.405,0.204,0.573c0.091,0.169,0.208,0.306,0.35,0.408
		c0.143,0.104,0.312,0.156,0.505,0.156c0.285,0,0.577-0.074,0.875-0.224c0.298-0.149,0.58-0.363,0.846-0.642s0.502-0.623,0.71-1.031
		c0.207-0.408,0.363-0.871,0.467-1.39l1.925-9.879c0.064-0.312,0.327-0.573,0.787-0.788c0.46-0.213,0.982-0.32,1.565-0.32
		c0.661,0,1.186,0.117,1.575,0.35C115.9,49.069,116.095,49.368,116.095,49.73"/>
	<path fill="#E84564" d="M119.634,59.668c0.727-0.622,1.316-1.141,1.771-1.556c0.453-0.415,0.842-0.794,1.166-1.138
		s0.619-0.69,0.885-1.041c0.266-0.35,0.58-0.765,0.943-1.244c0.362-0.479,0.804-1.065,1.322-1.76
		c0.519-0.693,1.192-1.559,2.022-2.596c0.168-0.233,0.356-0.46,0.564-0.681c0.207-0.221,0.437-0.418,0.689-0.594
		c0.253-0.175,0.531-0.316,0.836-0.427s0.645-0.166,1.021-0.166c0.622,0,1.102,0.068,1.439,0.204
		c0.336,0.136,0.583,0.302,0.738,0.496c0.156,0.194,0.246,0.399,0.272,0.612c0.025,0.214,0.038,0.399,0.038,0.555
		c0,0.311-0.123,0.654-0.369,1.03s-0.519,0.739-0.816,1.089c-0.299,0.351-0.58,0.671-0.846,0.963s-0.418,0.509-0.457,0.651
		c0,0.402,0.029,0.769,0.088,1.099c0.058,0.331,0.136,0.655,0.232,0.973c0.098,0.317,0.198,0.654,0.302,1.011
		s0.204,0.769,0.302,1.235c0.097,0.467,0.175,1.004,0.233,1.613s0.087,1.329,0.087,2.159c0.467-0.312,0.969-0.594,1.508-0.847
		c0.537-0.253,1.099-0.515,1.682-0.787c0.584-0.272,1.183-0.574,1.799-0.904c0.615-0.331,1.234-0.729,1.857-1.196l0.02,4.356
		c-0.805,0.622-1.734,1.205-2.791,1.75c-1.057,0.544-2.165,1.024-3.325,1.438c-1.16,0.415-2.334,0.743-3.52,0.982
		c-1.187,0.239-2.312,0.36-3.374,0.36c-0.766,0-1.478-0.072-2.139-0.215s-1.242-0.366-1.74-0.671
		c-0.5-0.304-0.905-0.703-1.216-1.195c-0.312-0.493-0.499-1.089-0.564-1.789c-0.182,0.039-0.359,0.064-0.534,0.077
		c-0.176,0.014-0.348,0.021-0.516,0.021c-0.207,0-0.401-0.007-0.583-0.021c-0.182-0.013-0.338-0.061-0.467-0.146
		c-0.13-0.084-0.233-0.221-0.312-0.408c-0.078-0.188-0.116-0.457-0.116-0.807c0-0.312,0.078-0.6,0.233-0.865
		c0.155-0.267,0.337-0.503,0.544-0.71c0.207-0.208,0.415-0.39,0.622-0.545C119.375,59.882,119.53,59.759,119.634,59.668
		 M122.123,62.157c0.155,0,0.327,0.097,0.516,0.291c0.188,0.195,0.405,0.408,0.651,0.642s0.531,0.448,0.855,0.643
		s0.693,0.291,1.108,0.291c0.506,0,0.924-0.084,1.255-0.253c0.33-0.168,0.593-0.392,0.787-0.671c0.194-0.278,0.33-0.603,0.408-0.972
		c0.078-0.37,0.116-0.755,0.116-1.157c0-0.351-0.022-0.707-0.067-1.069c-0.046-0.363-0.104-0.71-0.175-1.04
		c-0.071-0.331-0.149-0.643-0.233-0.934c-0.085-0.292-0.159-0.542-0.224-0.749L122.123,62.157z"/>
	<path fill="#E84564" d="M147.033,52.2c0.104-0.44,0.288-0.832,0.554-1.177c0.266-0.343,0.57-0.631,0.914-0.864
		s0.703-0.409,1.079-0.525s0.732-0.175,1.069-0.175c0.402,0,0.739,0.087,1.012,0.262c0.272,0.176,0.408,0.451,0.408,0.827
		c0,0.116-0.02,0.253-0.059,0.408c-0.077,0.337-0.175,0.797-0.291,1.381c-0.117,0.583-0.243,1.244-0.379,1.983
		c-0.137,0.739-0.276,1.52-0.418,2.343c-0.144,0.823-0.279,1.644-0.409,2.46c-0.324,1.919-0.654,3.98-0.991,6.184
		c0.389-0.22,0.81-0.492,1.264-0.816s0.959-0.758,1.517-1.303s1.18-1.229,1.867-2.052c0.687-0.823,1.458-1.851,2.313-3.082
		l0.934,4.317c-0.233,0.401-0.534,0.813-0.904,1.234c-0.369,0.422-0.777,0.843-1.225,1.264c-0.447,0.422-0.914,0.83-1.4,1.226
		s-0.963,0.769-1.43,1.118c-1.102,0.829-2.288,1.633-3.558,2.411c-0.247,1.387-0.538,2.738-0.876,4.055
		c-0.337,1.315-0.735,2.547-1.195,3.694c-0.461,1.147-0.985,2.2-1.575,3.16c-0.591,0.959-1.258,1.782-2.003,2.47
		c-0.746,0.687-1.578,1.222-2.499,1.604c-0.921,0.383-1.938,0.574-3.053,0.574c-0.441,0-0.917-0.046-1.43-0.136
		c-0.512-0.091-0.985-0.272-1.419-0.545c-0.435-0.272-0.794-0.66-1.079-1.167c-0.285-0.505-0.429-1.18-0.429-2.022
		c0-0.583,0.149-1.24,0.447-1.974c0.299-0.732,0.707-1.504,1.226-2.313c0.519-0.811,1.134-1.653,1.848-2.528
		c0.712-0.875,1.487-1.747,2.324-2.615c0.835-0.869,1.71-1.725,2.624-2.567s1.838-1.646,2.771-2.411l0.525-1.808
		c-0.7,0.622-1.43,1.124-2.188,1.507c-0.759,0.382-1.494,0.573-2.207,0.573c-0.622,0-1.229-0.126-1.817-0.379
		c-0.591-0.253-1.112-0.616-1.566-1.089c-0.453-0.474-0.816-1.051-1.088-1.731c-0.273-0.68-0.409-1.448-0.409-2.304
		c0-1.128,0.056-2.165,0.165-3.111c0.11-0.946,0.27-1.848,0.477-2.703s0.467-1.682,0.778-2.479c0.312-0.797,0.667-1.604,1.069-2.421
		c0.298-0.583,0.727-1.027,1.283-1.332c0.558-0.305,1.102-0.457,1.634-0.457c0.453,0,0.843,0.113,1.167,0.34
		c0.323,0.228,0.486,0.581,0.486,1.061c0,0.143-0.017,0.298-0.049,0.467c-0.033,0.168-0.088,0.35-0.166,0.544
		c-0.232,0.597-0.463,1.3-0.69,2.11c-0.227,0.81-0.428,1.64-0.603,2.488c-0.175,0.85-0.314,1.683-0.418,2.499
		c-0.104,0.817-0.155,1.536-0.155,2.158c0,0.324,0.022,0.639,0.067,0.943c0.046,0.305,0.127,0.577,0.243,0.817
		c0.117,0.239,0.272,0.434,0.468,0.583c0.193,0.149,0.439,0.224,0.738,0.224c0.479,0,0.914-0.207,1.303-0.622
		c0.39-0.415,0.726-0.914,1.012-1.498c0.285-0.583,0.515-1.186,0.689-1.808c0.176-0.622,0.289-1.141,0.341-1.556L147.033,52.2z
		 M137.933,81.447c0.544,0,1.06-0.159,1.546-0.477s0.934-0.736,1.342-1.254c0.408-0.519,0.78-1.108,1.118-1.77
		c0.337-0.662,0.635-1.339,0.895-2.032c0.259-0.694,0.479-1.371,0.661-2.032s0.323-1.252,0.428-1.77
		c-0.506,0.337-1.021,0.738-1.546,1.205c-0.525,0.467-1.037,0.97-1.536,1.507c-0.499,0.538-0.973,1.093-1.42,1.663
		s-0.839,1.118-1.177,1.644c-0.337,0.524-0.603,1.014-0.797,1.468s-0.291,0.83-0.291,1.128
		C137.155,81.207,137.414,81.447,137.933,81.447"/>
	<path fill="#E84564" d="M164.398,41.271c-0.843,1.53-1.595,2.678-2.256,3.442c-0.661,0.766-1.198,1.147-1.614,1.147
		c-0.569,0-0.855-0.654-0.855-1.965c0-1.27,0.182-2.411,0.545-3.422c0.363-1.011,0.872-1.909,1.526-2.693
		c0.655-0.784,1.433-1.451,2.333-2.003c0.901-0.551,1.887-1.004,2.956-1.361s2.2-0.619,3.394-0.788
		c1.192-0.168,2.418-0.253,3.676-0.253c1.464,0,2.936,0.107,4.414,0.321c1.478,0.213,2.897,0.515,4.258,0.904
		c1.361,0.389,2.632,0.859,3.812,1.41c1.18,0.551,2.207,1.161,3.082,1.828c0.875,0.668,1.562,1.391,2.062,2.168
		c0.499,0.778,0.749,1.589,0.749,2.431c0,0.999-0.218,1.983-0.651,2.956c-0.435,0.973-1.115,1.851-2.042,2.635
		s-2.113,1.43-3.559,1.936c-1.446,0.505-3.18,0.777-5.202,0.816c1.283,0,2.405,0.204,3.364,0.612s1.763,0.96,2.411,1.653
		s1.135,1.494,1.459,2.401c0.323,0.907,0.485,1.86,0.485,2.858c0,0.816-0.109,1.646-0.33,2.489s-0.551,1.652-0.992,2.431
		c-0.44,0.777-0.991,1.507-1.652,2.188s-1.437,1.273-2.324,1.779s-1.89,0.904-3.004,1.196c-1.115,0.291-2.341,0.438-3.675,0.438
		c-0.844,0-1.731-0.056-2.664-0.166c-0.934-0.11-1.877-0.259-2.83-0.447c-0.953-0.188-1.89-0.411-2.81-0.671
		c-0.921-0.26-1.789-0.537-2.606-0.836c-0.362-0.09-0.684-0.227-0.962-0.408c-0.279-0.182-0.418-0.506-0.418-0.973
		c0-2.151,0.055-4.355,0.165-6.611s0.334-4.46,0.671-6.611c0.337-2.152,0.823-4.204,1.458-6.154
		c0.635-1.951,1.479-3.698,2.528-5.241c0.92-0.635,1.757-0.952,2.509-0.952c0.945,0,1.736,0.531,2.372,1.594
		c-0.597,0.804-1.105,1.698-1.526,2.684c-0.422,0.985-0.774,2.02-1.06,3.102c-0.285,1.083-0.516,2.188-0.69,3.315
		c-0.176,1.128-0.314,2.23-0.418,3.306c-0.065,0.61-0.12,1.259-0.166,1.945c-0.045,0.687-0.087,1.387-0.126,2.1
		s-0.068,1.423-0.088,2.13c-0.019,0.706-0.029,1.384-0.029,2.032c0,0.104,0.004,0.246,0.011,0.427
		c0.006,0.183,0.022,0.37,0.048,0.564c0.026,0.194,0.064,0.373,0.117,0.535c0.052,0.162,0.129,0.281,0.233,0.359
		c0.79,0.26,1.64,0.479,2.547,0.661s1.814,0.272,2.723,0.272c1.102,0,2.172-0.133,3.208-0.399c1.037-0.265,1.958-0.687,2.762-1.264
		c0.804-0.576,1.448-1.315,1.936-2.217c0.485-0.9,0.729-1.993,0.729-3.276c0-0.752-0.143-1.378-0.428-1.877
		c-0.285-0.498-0.658-0.917-1.118-1.254s-0.985-0.605-1.575-0.807s-1.192-0.383-1.809-0.545c-0.615-0.162-1.219-0.321-1.808-0.477
		c-0.591-0.155-1.115-0.353-1.576-0.593c-0.46-0.239-0.833-0.538-1.117-0.895c-0.285-0.356-0.429-0.82-0.429-1.391
		c0-0.272,0.017-0.509,0.049-0.709c0.032-0.201,0.11-0.367,0.233-0.496c0.123-0.13,0.305-0.227,0.545-0.292
		c0.239-0.064,0.566-0.098,0.981-0.098c0.558,0,1.066,0.023,1.527,0.068c0.459,0.046,0.955,0.068,1.487,0.068
		c1.244,0,2.369-0.152,3.373-0.457c1.005-0.305,1.86-0.716,2.567-1.235c0.707-0.518,1.251-1.124,1.634-1.818
		c0.382-0.693,0.573-1.435,0.573-2.226c0-0.519-0.149-0.995-0.447-1.43s-0.717-0.823-1.254-1.167
		c-0.538-0.343-1.171-0.645-1.896-0.904c-0.726-0.259-1.517-0.476-2.372-0.651c-0.855-0.175-1.757-0.304-2.703-0.389
		c-0.946-0.084-1.905-0.126-2.878-0.126c-1.231,0-2.447,0.068-3.646,0.204c-1.2,0.136-2.314,0.344-3.346,0.623
		c-1.03,0.278-1.944,0.628-2.741,1.05C165.419,40.225,164.813,40.715,164.398,41.271"/>
	<path fill="#E84564" d="M202.784,52.57c0.376,0.752,0.658,1.546,0.846,2.382s0.282,1.637,0.282,2.401
		c0,0.766-0.084,1.536-0.253,2.314c-0.168,0.777-0.412,1.529-0.729,2.256c-0.318,0.726-0.707,1.406-1.167,2.041
		c-0.46,0.637-0.985,1.187-1.575,1.653s-1.235,0.836-1.936,1.108c-0.699,0.272-1.445,0.408-2.235,0.408
		c-1.142,0-2.117-0.249-2.927-0.748c-0.811-0.499-1.476-1.15-1.993-1.955c-0.519-0.804-0.898-1.711-1.138-2.722
		c-0.24-1.012-0.36-2.036-0.36-3.072c0-1.427,0.215-2.759,0.642-3.997c0.428-1.237,1.041-2.313,1.838-3.228
		c0.798-0.914,1.772-1.634,2.927-2.158c1.153-0.525,2.45-0.788,3.89-0.788c1.231,0,2.385,0.191,3.461,0.574
		c1.075,0.382,2.084,0.895,3.023,1.536c0.94,0.642,1.815,1.377,2.625,2.207c0.811,0.829,1.566,1.686,2.266,2.566l-0.369,2.742
		c-0.35-0.467-0.823-0.973-1.42-1.517c-0.596-0.545-1.228-1.076-1.896-1.595s-1.325-1.008-1.974-1.468
		c-0.648-0.461-1.206-0.847-1.673-1.157L202.784,52.57z M196.775,63.401c0.44,0,0.868-0.224,1.283-0.671s0.778-1.012,1.089-1.691
		c0.312-0.681,0.561-1.433,0.749-2.256c0.188-0.823,0.282-1.611,0.282-2.363c0-0.596-0.046-1.15-0.136-1.662
		c-0.091-0.512-0.228-0.956-0.409-1.332s-0.415-0.674-0.699-0.895c-0.286-0.221-0.63-0.331-1.031-0.331
		c-0.532,0-1.037,0.228-1.517,0.681c-0.48,0.454-0.901,1.034-1.265,1.741c-0.362,0.706-0.647,1.487-0.855,2.343
		c-0.207,0.855-0.311,1.679-0.311,2.47c0,0.544,0.052,1.057,0.155,1.536s0.266,0.897,0.486,1.254s0.512,0.642,0.875,0.855
		C195.835,63.295,196.27,63.401,196.775,63.401"/>
	<path fill="#E84564" d="M224,62.779c-1.245,0.726-2.354,1.361-3.325,1.905c-0.973,0.545-1.838,0.999-2.597,1.361
		c-0.758,0.363-1.432,0.636-2.021,0.817c-0.591,0.181-1.126,0.271-1.604,0.271c-0.985,0-1.854-0.298-2.605-0.895
		c-0.752-0.596-1.381-1.455-1.887-2.576s-0.885-2.479-1.138-4.074s-0.379-3.39-0.379-5.387c0-0.777,0.032-1.606,0.097-2.488
		s0.156-1.757,0.272-2.626c-0.389-0.051-0.69-0.1-0.904-0.146c-0.214-0.045-0.44-0.091-0.681-0.137
		c-0.24-0.045-0.544-0.094-0.914-0.146c-0.369-0.052-0.904-0.116-1.604-0.194c-0.311-0.039-0.55-0.113-0.719-0.224
		c-0.169-0.109-0.292-0.239-0.37-0.389c-0.077-0.149-0.123-0.305-0.136-0.467s-0.02-0.302-0.02-0.418
		c0-0.259,0.126-0.457,0.38-0.593c0.252-0.137,0.576-0.236,0.972-0.302c0.396-0.064,0.829-0.101,1.303-0.107
		c0.474-0.006,0.927-0.003,1.361,0.01c0.435,0.014,0.823,0.023,1.167,0.029c0.344,0.007,0.58-0.003,0.709-0.029
		c0.351-1.75,0.795-3.444,1.332-5.085c0.538-1.64,1.141-3.098,1.809-4.375c0.668-1.276,1.397-2.301,2.188-3.073
		c0.791-0.771,1.621-1.157,2.489-1.157c0.558,0,1.066,0.155,1.526,0.467c0.461,0.311,0.853,0.726,1.177,1.245
		c0.324,0.518,0.574,1.125,0.749,1.818c0.175,0.694,0.263,1.417,0.263,2.168c0,0.636-0.091,1.307-0.272,2.013
		c-0.182,0.707-0.428,1.427-0.739,2.158c-0.311,0.733-0.678,1.476-1.099,2.228s-0.865,1.497-1.332,2.235
		c0.117,0.014,0.312,0.023,0.584,0.029c0.271,0.007,0.586,0.017,0.942,0.029c0.356,0.014,0.742,0.029,1.157,0.049
		s0.816,0.036,1.206,0.049c0.389,0.013,0.751,0.026,1.089,0.039c0.337,0.013,0.615,0.025,0.836,0.038
		c0.26,0.014,0.447,0.144,0.563,0.39c0.117,0.246,0.176,0.557,0.176,0.933c0,0.454-0.13,0.824-0.39,1.108
		c-0.259,0.286-0.544,0.429-0.855,0.429h-7.467c-0.376,0.519-0.756,1.027-1.138,1.526c-0.383,0.499-0.736,0.949-1.06,1.352
		c-0.052,0.804-0.098,1.594-0.137,2.372c-0.013,0.337-0.025,0.684-0.039,1.04c-0.013,0.357-0.025,0.71-0.039,1.061
		c-0.013,0.35-0.021,0.687-0.028,1.011s-0.01,0.622-0.01,0.895c0,0.7,0.064,1.29,0.194,1.77s0.317,0.872,0.564,1.177
		c0.246,0.305,0.547,0.524,0.903,0.661c0.356,0.136,0.756,0.204,1.196,0.204c0.272,0,0.612-0.064,1.021-0.194
		c0.408-0.13,0.855-0.308,1.342-0.535c0.485-0.227,0.998-0.496,1.535-0.807c0.538-0.312,1.07-0.651,1.595-1.021
		c0.525-0.369,1.027-0.758,1.508-1.167c0.479-0.407,0.913-0.826,1.303-1.254V62.779z M217.777,38.161
		c0-0.143-0.01-0.302-0.029-0.477s-0.062-0.34-0.127-0.496c-0.064-0.155-0.165-0.285-0.301-0.389
		c-0.137-0.104-0.328-0.155-0.574-0.155c-0.337,0-0.678,0.298-1.021,0.894c-0.344,0.597-0.674,1.358-0.992,2.285
		c-0.317,0.927-0.615,1.948-0.894,3.062c-0.279,1.115-0.535,2.197-0.769,3.248c0.194,0.025,0.389,0.048,0.583,0.067
		s0.396,0.043,0.604,0.068c0.389-0.661,0.794-1.377,1.215-2.148s0.801-1.53,1.138-2.275s0.615-1.442,0.836-2.09
		C217.667,39.107,217.777,38.576,217.777,38.161"/>
	<path fill="#B3354D" d="M40.066,31.788c5.797,0,10.496,9.883,10.496,18.993c0,9.11-5.998,12.996-10.496,13.995
		c-4.499,1-6.892,1-10.658,1c-0.563,0-1.088,0.003-1.592,0.003c-2.476,0-4.435-0.078-7.743-1.003
		C16.092,63.662,9.577,59.891,9.577,50.78c0-9.109,4.699-18.993,10.496-18.993c3.195,0,7.119,3.002,9.998,7.222
		c-0.03,0.045-0.062,0.088-0.093,0.133l0.186,0.003c-0.026-0.04-0.053-0.078-0.08-0.117c-0.004-0.006-0.009-0.013-0.014-0.019
		C32.95,34.791,36.872,31.788,40.066,31.788 M40.066,30.143c-3.183,0-6.886,2.299-9.995,6.117c-3.109-3.818-6.814-6.117-9.998-6.117
		c-3.363,0-6.516,2.472-8.877,6.959c-2.074,3.941-3.264,8.927-3.264,13.678c0,9.075,6.043,13.999,11.698,15.58
		c3.532,0.987,5.621,1.063,8.186,1.063c0.247,0,0.499-0.001,0.757-0.002c0.27-0.001,0.547-0.002,0.835-0.002
		c3.818,0,6.34,0,11.015-1.039c1.731-0.384,5.045-1.474,7.787-4.446c2.652-2.875,3.997-6.628,3.997-11.154
		c0-4.751-1.189-9.737-3.264-13.678C46.582,32.614,43.429,30.143,40.066,30.143"/>
</g>
</svg>
