<?xml version="1.0" encoding="utf-8"?>
<!-- Generator: Adobe Illustrator 15.1.0, SVG Export Plug-In . SVG Version: 6.00 Build 0)  -->
<!DOCTYPE svg PUBLIC "-//W3C//DTD SVG 1.1//EN" "http://www.w3.org/Graphics/SVG/1.1/DTD/svg11.dtd">
<svg version="1.1" id="Layer_1" xmlns="http://www.w3.org/2000/svg" xmlns:xlink="http://www.w3.org/1999/xlink" x="0px" y="0px"
	 width="48.49px" height="418.5px" viewBox="0 0 48.49 418.5" enable-background="new 0 0 48.49 418.5" xml:space="preserve">
<path fill="#124C4D" d="M23.994,52C10.742,52,0,62.745,0,76s10.742,24,23.994,24s23.994-10.745,23.994-24S37.246,52,23.994,52z
	 M33.752,71.661c0.01,0.203,0.014,0.407,0.014,0.611c0,6.247-4.754,13.45-13.445,13.45c-2.668,0-5.152-0.783-7.244-2.125
	c0.369,0.045,0.746,0.066,1.127,0.066c2.215,0,4.252-0.755,5.869-2.023c-2.066-0.038-3.812-1.404-4.414-3.282
	c0.289,0.055,0.584,0.085,0.889,0.085c0.432,0,0.846-0.058,1.242-0.166c-2.162-0.435-3.795-2.345-3.795-4.635
	c0-0.021,0-0.04,0-0.061c1,0.354,1.369,0.567,2.145,0.592c-1.268-0.848-2.099-2.294-2.099-3.935c0-0.866,0.231-1.678,0.639-2.376
	c2.33,2.859,5.813,4.742,9.741,4.938c-0.08-0.346-0.121-0.707-0.121-1.077c0-2.61,2.115-4.727,4.725-4.727
	c1.359,0,2.588,0.574,3.449,1.492c1.078-0.212,2.09-0.604,3.002-1.146c-0.354,1.104-1.102,2.03-2.078,2.615
	c0.957-0.114,1.867-0.368,2.715-0.744C35.477,70.162,34.676,70.996,33.752,71.661z"/>
<path fill="#124C4D" d="M23.994,0C10.742,0,0,10.745,0,24s10.742,24,23.994,24c13.25,0,23.994-10.745,23.994-24S37.244,0,23.994,0z
	 M29.678,16.585H26.07c-0.428,0-0.902,0.561-0.902,1.312v2.605h4.51v3.714h-4.51v11.152h-4.26V24.216h-3.859v-3.714h3.859v-2.186
	c0-3.135,2.176-5.685,5.162-5.685h3.607V16.585z"/>
<path fill="#889FA1" d="M24.534,114.896l-10.933-10.938c-0.307-0.305-0.705-0.457-1.105-0.457s-0.799,0.152-1.104,0.457
	l-2.119,2.119c-0.223-0.593-0.793-1.014-1.463-1.014H4.686c-0.862,0-1.562,0.699-1.562,1.562v5.603l-2.666,2.668
	c-0.447,0.446-0.581,1.118-0.339,1.703c0.242,0.584,0.811,0.964,1.443,0.964h1.562v9.375c0,0.863,0.699,1.562,1.562,1.562h15.621
	c0.861,0,1.562-0.699,1.562-1.562v-9.375h1.562c0.633,0,1.201-0.38,1.443-0.964C25.115,116.014,24.981,115.342,24.534,114.896z
	 M15.62,126.938H9.372v-10.156h6.248V126.938z M20.307,116v10.938h-3.905v-10.156c0-0.432-0.35-0.781-0.781-0.781H9.372
	c-0.432,0-0.781,0.35-0.781,0.781v10.156H4.686V116H1.562l3.123-3.125v-6.25h3.125v3.125l4.686-4.688L23.43,116H20.307z"/>
<path fill="#DB4B64" d="M24.534,142.896l-10.933-10.938c-0.307-0.305-0.705-0.457-1.105-0.457s-0.799,0.152-1.104,0.457
	l-2.119,2.119c-0.223-0.593-0.793-1.014-1.463-1.014H4.686c-0.862,0-1.562,0.699-1.562,1.562v5.603l-2.666,2.668
	c-0.447,0.446-0.581,1.118-0.339,1.703c0.242,0.584,0.811,0.964,1.443,0.964h1.562v9.375c0,0.863,0.699,1.562,1.562,1.562h15.621
	c0.861,0,1.562-0.699,1.562-1.562v-9.375h1.562c0.633,0,1.201-0.38,1.443-0.964C25.115,144.014,24.981,143.342,24.534,142.896z
	 M15.62,154.938H9.372v-10.156h6.248V154.938z M20.307,144v10.938h-3.905v-10.156c0-0.432-0.35-0.781-0.781-0.781H9.372
	c-0.432,0-0.781,0.35-0.781,0.781v10.156H4.686V144H1.562l3.123-3.125v-6.25h3.125v3.125l4.686-4.688L23.43,144H20.307z"/>
<path fill="#DB4B64" d="M7.891,194.875c0.826-0.717,1.352-1.782,1.352-2.97c0-2.154-1.729-3.905-3.852-3.905
	s-3.852,1.751-3.852,3.905c0,1.188,0.525,2.252,1.352,2.97C1.172,195.79,0,197.618,0,199.718v5.47c0,0.863,0.689,1.562,1.539,1.562
	v4.688C1.539,212.3,2.229,213,3.08,213h4.621c0.85,0,1.541-0.7,1.541-1.562v-4.688c0.85,0,1.539-0.699,1.539-1.562v-5.47
	C10.781,197.618,9.607,195.79,7.891,194.875z M5.391,189.562c1.275,0,2.311,1.05,2.311,2.343c0,1.295-1.035,2.345-2.311,2.345
	c-1.277,0-2.311-1.05-2.311-2.345C3.08,190.612,4.113,189.562,5.391,189.562z M9.242,205.188H8.471v-5.078
	c0-0.216-0.172-0.392-0.385-0.392s-0.385,0.176-0.385,0.392v11.328H5.775v-6.25c0-0.216-0.172-0.391-0.385-0.391
	s-0.385,0.175-0.385,0.391v6.25H3.08v-11.328c0-0.216-0.172-0.392-0.385-0.392s-0.385,0.176-0.385,0.392v5.078H1.539v-5.47
	c0-2.156,1.725-3.905,3.852-3.905s3.852,1.749,3.852,3.905V205.188z M19.176,200.304c0.523-0.561,0.848-1.315,0.848-2.148
	c0-1.722-1.383-3.124-3.08-3.124c-1.699,0-3.082,1.402-3.082,3.124c0,0.833,0.324,1.588,0.848,2.148
	c-1.422,0.8-2.387,2.339-2.387,4.103v3.125c0,0.862,0.689,1.562,1.539,1.562v2.344c0,0.862,0.689,1.562,1.541,1.562h3.08
	c0.852,0,1.541-0.7,1.541-1.562v-2.344c0.85,0,1.539-0.7,1.539-1.562v-3.125C21.562,202.643,20.598,201.104,19.176,200.304z
	 M16.943,196.594c0.85,0,1.539,0.699,1.539,1.562c0,0.863-0.689,1.562-1.539,1.562c-0.852,0-1.541-0.699-1.541-1.562
	C15.402,197.293,16.092,196.594,16.943,196.594z M20.023,207.531h-0.771v-2.734c0-0.216-0.172-0.391-0.385-0.391
	c-0.211,0-0.385,0.175-0.385,0.391v6.641h-1.154v-3.906c0-0.216-0.172-0.391-0.385-0.391s-0.387,0.175-0.387,0.391v3.906h-1.154
	v-6.641c0-0.216-0.172-0.391-0.385-0.391s-0.385,0.175-0.385,0.391v2.734h-0.771v-3.125c0-1.726,1.379-3.125,3.082-3.125
	c1.701,0,3.08,1.399,3.08,3.125V207.531z"/>
<path fill="#889FA1" d="M7.891,166.875c0.826-0.717,1.352-1.782,1.352-2.97c0-2.154-1.729-3.905-3.852-3.905
	s-3.852,1.751-3.852,3.905c0,1.188,0.525,2.252,1.352,2.97C1.172,167.79,0,169.618,0,171.718v5.47c0,0.863,0.689,1.562,1.539,1.562
	v4.688C1.539,184.3,2.229,185,3.08,185h4.621c0.85,0,1.541-0.7,1.541-1.562v-4.688c0.85,0,1.539-0.699,1.539-1.562v-5.47
	C10.781,169.618,9.607,167.79,7.891,166.875z M5.391,161.562c1.275,0,2.311,1.05,2.311,2.343c0,1.295-1.035,2.345-2.311,2.345
	c-1.277,0-2.311-1.05-2.311-2.345C3.08,162.612,4.113,161.562,5.391,161.562z M9.242,177.188H8.471v-5.078
	c0-0.216-0.172-0.392-0.385-0.392s-0.385,0.176-0.385,0.392v11.328H5.775v-6.25c0-0.216-0.172-0.391-0.385-0.391
	s-0.385,0.175-0.385,0.391v6.25H3.08v-11.328c0-0.216-0.172-0.392-0.385-0.392s-0.385,0.176-0.385,0.392v5.078H1.539v-5.47
	c0-2.156,1.725-3.905,3.852-3.905s3.852,1.749,3.852,3.905V177.188z M19.176,172.304c0.523-0.561,0.848-1.315,0.848-2.148
	c0-1.722-1.383-3.124-3.08-3.124c-1.699,0-3.082,1.402-3.082,3.124c0,0.833,0.324,1.588,0.848,2.148
	c-1.422,0.8-2.387,2.339-2.387,4.103v3.125c0,0.862,0.689,1.562,1.539,1.562v2.344c0,0.862,0.689,1.562,1.541,1.562h3.08
	c0.852,0,1.541-0.7,1.541-1.562v-2.344c0.85,0,1.539-0.7,1.539-1.562v-3.125C21.562,174.643,20.598,173.104,19.176,172.304z
	 M16.943,168.594c0.85,0,1.539,0.699,1.539,1.562c0,0.863-0.689,1.562-1.539,1.562c-0.852,0-1.541-0.699-1.541-1.562
	C15.402,169.293,16.092,168.594,16.943,168.594z M20.023,179.531h-0.771v-2.734c0-0.216-0.172-0.391-0.385-0.391
	c-0.211,0-0.385,0.175-0.385,0.391v6.641h-1.154v-3.906c0-0.216-0.172-0.391-0.385-0.391s-0.387,0.175-0.387,0.391v3.906h-1.154
	v-6.641c0-0.216-0.172-0.391-0.385-0.391s-0.385,0.175-0.385,0.391v2.734h-0.771v-3.125c0-1.726,1.379-3.125,3.082-3.125
	c1.701,0,3.08,1.399,3.08,3.125V179.531z"/>
<path fill="#889FA1" d="M24.064,235.5H0.775C0.348,235.5,0,235.147,0,234.709v-17.418c0-0.438,0.348-0.791,0.775-0.791
	c0.43,0,0.777,0.354,0.777,0.791v16.627h22.512c0.43,0,0.777,0.354,0.777,0.791C24.842,235.147,24.494,235.5,24.064,235.5
	L24.064,235.5z M23.676,216.896c-0.643,0-1.164,0.53-1.164,1.186c0,0.223,0.061,0.43,0.164,0.607l-2.477,3.031
	c-0.125-0.048-0.262-0.074-0.404-0.074c-0.225,0-0.436,0.066-0.613,0.179l-2.168-1.769c0.041-0.122,0.064-0.254,0.064-0.391
	c0-0.655-0.521-1.188-1.164-1.188s-1.164,0.532-1.164,1.188c0,0.32,0.125,0.611,0.326,0.824l-2.9,5.916
	c-0.047-0.007-0.096-0.01-0.143-0.01c-0.088,0-0.172,0.01-0.254,0.028l-2.719-4.437c0.16-0.203,0.256-0.46,0.256-0.738
	c0-0.656-0.523-1.188-1.166-1.188s-1.164,0.531-1.164,1.188c0,0.349,0.148,0.662,0.385,0.881l-3.039,7.435
	c-0.02-0.001-0.041-0.002-0.062-0.002c-0.643,0-1.164,0.531-1.164,1.187c0,0.656,0.521,1.188,1.164,1.188s1.164-0.531,1.164-1.188
	c0-0.348-0.148-0.661-0.385-0.88l3.039-7.436c0.021,0.001,0.041,0.003,0.062,0.003c0.088,0,0.172-0.011,0.252-0.028l2.721,4.435
	c-0.16,0.204-0.256,0.461-0.256,0.74c0,0.655,0.521,1.188,1.166,1.188c0.643,0,1.164-0.532,1.164-1.188
	c0-0.32-0.125-0.611-0.328-0.824l2.9-5.916c0.049,0.006,0.096,0.01,0.145,0.01c0.225,0,0.436-0.066,0.613-0.179l2.17,1.769
	c-0.043,0.122-0.066,0.254-0.066,0.391c0,0.655,0.521,1.187,1.164,1.187s1.164-0.531,1.164-1.187c0-0.223-0.061-0.429-0.164-0.606
	l2.479-3.032c0.125,0.048,0.262,0.075,0.402,0.075c0.645,0,1.166-0.531,1.166-1.188C24.842,217.427,24.32,216.896,23.676,216.896z"
	/>
<path fill="#124C4D" d="M24.064,257.5H0.775C0.348,257.5,0,257.147,0,256.709v-17.418c0-0.438,0.348-0.791,0.775-0.791
	c0.43,0,0.777,0.354,0.777,0.791v16.627h22.512c0.43,0,0.777,0.354,0.777,0.791C24.842,257.147,24.494,257.5,24.064,257.5
	L24.064,257.5z M23.676,238.896c-0.643,0-1.164,0.53-1.164,1.186c0,0.223,0.061,0.43,0.164,0.607l-2.477,3.031
	c-0.125-0.048-0.262-0.074-0.404-0.074c-0.225,0-0.436,0.066-0.613,0.179l-2.168-1.769c0.041-0.122,0.064-0.254,0.064-0.391
	c0-0.655-0.521-1.188-1.164-1.188s-1.164,0.532-1.164,1.188c0,0.32,0.125,0.611,0.326,0.824l-2.9,5.916
	c-0.047-0.007-0.096-0.01-0.143-0.01c-0.088,0-0.172,0.01-0.254,0.028l-2.719-4.437c0.16-0.203,0.256-0.46,0.256-0.738
	c0-0.656-0.523-1.188-1.166-1.188s-1.164,0.531-1.164,1.188c0,0.349,0.148,0.662,0.385,0.881l-3.039,7.435
	c-0.02-0.001-0.041-0.002-0.062-0.002c-0.643,0-1.164,0.531-1.164,1.187c0,0.656,0.521,1.188,1.164,1.188s1.164-0.531,1.164-1.188
	c0-0.348-0.148-0.661-0.385-0.88l3.039-7.436c0.021,0.001,0.041,0.003,0.062,0.003c0.088,0,0.172-0.011,0.252-0.028l2.721,4.435
	c-0.16,0.204-0.256,0.461-0.256,0.74c0,0.655,0.521,1.188,1.166,1.188c0.643,0,1.164-0.532,1.164-1.188
	c0-0.32-0.125-0.611-0.328-0.824l2.9-5.916c0.049,0.006,0.096,0.01,0.145,0.01c0.225,0,0.436-0.066,0.613-0.179l2.17,1.769
	c-0.043,0.122-0.066,0.254-0.066,0.391c0,0.655,0.521,1.187,1.164,1.187s1.164-0.531,1.164-1.187c0-0.223-0.061-0.429-0.164-0.606
	l2.479-3.032c0.125,0.048,0.262,0.075,0.402,0.075c0.645,0,1.166-0.531,1.166-1.188C24.842,239.427,24.32,238.896,23.676,238.896z"
	/>
<path fill="#DB4B64" d="M24.064,257.5H0.775C0.348,257.5,0,257.147,0,256.709v-17.418c0-0.438,0.348-0.791,0.775-0.791
	c0.43,0,0.777,0.354,0.777,0.791v16.627h22.512c0.43,0,0.777,0.354,0.777,0.791C24.842,257.147,24.494,257.5,24.064,257.5
	L24.064,257.5z M23.676,238.896c-0.643,0-1.164,0.53-1.164,1.186c0,0.223,0.061,0.43,0.164,0.607l-2.477,3.031
	c-0.125-0.048-0.262-0.074-0.404-0.074c-0.225,0-0.436,0.066-0.613,0.179l-2.168-1.769c0.041-0.122,0.064-0.254,0.064-0.391
	c0-0.655-0.521-1.188-1.164-1.188s-1.164,0.532-1.164,1.188c0,0.32,0.125,0.611,0.326,0.824l-2.9,5.916
	c-0.047-0.007-0.096-0.01-0.143-0.01c-0.088,0-0.172,0.01-0.254,0.028l-2.719-4.437c0.16-0.203,0.256-0.46,0.256-0.738
	c0-0.656-0.523-1.188-1.166-1.188s-1.164,0.531-1.164,1.188c0,0.349,0.148,0.662,0.385,0.881l-3.039,7.435
	c-0.02-0.001-0.041-0.002-0.062-0.002c-0.643,0-1.164,0.531-1.164,1.187c0,0.656,0.521,1.188,1.164,1.188s1.164-0.531,1.164-1.188
	c0-0.348-0.148-0.661-0.385-0.88l3.039-7.436c0.021,0.001,0.041,0.003,0.062,0.003c0.088,0,0.172-0.011,0.252-0.028l2.721,4.435
	c-0.16,0.204-0.256,0.461-0.256,0.74c0,0.655,0.521,1.188,1.166,1.188c0.643,0,1.164-0.532,1.164-1.188
	c0-0.32-0.125-0.611-0.328-0.824l2.9-5.916c0.049,0.006,0.096,0.01,0.145,0.01c0.225,0,0.436-0.066,0.613-0.179l2.17,1.769
	c-0.043,0.122-0.066,0.254-0.066,0.391c0,0.655,0.521,1.187,1.164,1.187s1.164-0.531,1.164-1.187c0-0.223-0.061-0.429-0.164-0.606
	l2.479-3.032c0.125,0.048,0.262,0.075,0.402,0.075c0.645,0,1.166-0.531,1.166-1.188C24.842,239.427,24.32,238.896,23.676,238.896z"
	/>
<path fill="#FFFFFF" d="M12.5,379.324H8.93c-0.422,0-0.895,0.543-0.895,1.27v2.521H12.5v3.594H8.035V397.5H3.82v-10.791H0v-3.594
	h3.82V381c0-3.033,2.154-5.5,5.109-5.5h3.57V379.324z"/>
<path fill="#FFFFFF" d="M25.5,353.486c-0.939,0.422-1.947,0.707-3.006,0.836c1.082-0.656,1.91-1.695,2.301-2.934
	c-1.01,0.607-2.131,1.049-3.322,1.287C20.52,351.645,19.158,351,17.654,351c-2.889,0-5.232,2.375-5.232,5.301
	c0,0.416,0.047,0.82,0.137,1.209c-4.348-0.221-8.205-2.332-10.783-5.539c-0.451,0.783-0.709,1.693-0.709,2.666
	c0,1.838,0.924,3.461,2.326,4.412c-0.855-0.027-1.664-0.266-2.369-0.664c0,0.023,0,0.045,0,0.066c0,2.568,1.805,4.713,4.197,5.199
	c-0.439,0.121-0.902,0.186-1.379,0.186c-0.336,0-0.664-0.033-0.984-0.096c0.666,2.107,2.6,3.639,4.887,3.682
	c-1.789,1.422-4.045,2.27-6.496,2.27c-0.422,0-0.84-0.025-1.248-0.074C2.314,371.121,5.064,372,8.02,372
	c9.623,0,14.885-8.078,14.885-15.084c0-0.229-0.004-0.457-0.016-0.686C23.912,355.482,24.799,354.549,25.5,353.486z"/>
<path fill="#124C4D" d="M12.639,345.334H1.686v-7.501h2.186c0,0,0.582-0.747,1.828-1.666H0.842C0.377,336.167,0,336.54,0,337v9.167
	C0,346.628,0.377,347,0.842,347H13.48c0.467,0,0.844-0.372,0.844-0.833v-3.122l-1.686,1.371V345.334z M11.258,339.542v2.958
	l5.594-4.334L11.258,334v2.608c-6.793,0-6.793,6.642-6.793,6.642C6.387,340.127,7.572,339.542,11.258,339.542z"/>
<path fill="#889FA1" d="M11.967,318.031c-1.203-1.203-2.104-1.023-2.104-1.023l-4.211,4.211l-4.811,4.812L0,330.001l3.969-0.842
	l4.811-4.812l4.211-4.211C12.99,320.136,13.17,319.234,11.967,318.031z M3.732,328.683l-1.354,0.291
	c-0.131-0.244-0.287-0.49-0.576-0.777c-0.287-0.287-0.531-0.445-0.775-0.576l0.291-1.354l0.391-0.391c0,0,0.736,0.016,1.568,0.846
	c0.832,0.832,0.846,1.57,0.846,1.57L3.732,328.683z"/>
<path fill="#DB4B64" d="M12.496,297.095c2.158,0,3.906,1.748,3.906,3.905c0,2.158-1.748,3.907-3.906,3.907
	c-2.156,0-3.904-1.749-3.904-3.907C8.592,298.843,10.34,297.095,12.496,297.095 M12.496,296.312c-2.584,0-4.686,2.104-4.686,4.688
	c0,2.585,2.102,4.688,4.686,4.688s4.688-2.103,4.688-4.688C17.184,298.416,15.08,296.312,12.496,296.312L12.496,296.312z
	 M12.496,290.062c0.402,0,0.797,0.022,1.188,0.065l0.832,3.325c0.67,0.179,1.303,0.444,1.889,0.783l2.939-1.764
	c0.617,0.497,1.182,1.061,1.678,1.681l-1.762,2.939c0.338,0.586,0.604,1.219,0.783,1.889l3.324,0.831
	c0.043,0.391,0.064,0.786,0.064,1.188c0,0.402-0.021,0.798-0.064,1.188l-3.324,0.832c-0.18,0.67-0.445,1.303-0.783,1.888
	l1.764,2.941c-0.498,0.618-1.062,1.183-1.68,1.68l-2.939-1.764c-0.586,0.339-1.219,0.605-1.889,0.783l-0.832,3.326
	c-0.391,0.042-0.785,0.064-1.188,0.064c-0.4,0-0.797-0.022-1.188-0.064l-0.83-3.326c-0.67-0.178-1.303-0.444-1.889-0.783
	l-2.939,1.764c-0.619-0.497-1.182-1.062-1.68-1.68l1.764-2.941c-0.34-0.586-0.604-1.218-0.783-1.888l-3.324-0.832
	c-0.043-0.39-0.064-0.785-0.064-1.188c0-0.401,0.021-0.797,0.064-1.188l3.324-0.831c0.18-0.67,0.443-1.303,0.783-1.889l-1.764-2.939
	c0.498-0.62,1.061-1.184,1.68-1.681l2.939,1.764c0.586-0.339,1.219-0.604,1.889-0.783l0.83-3.325
	C11.699,290.085,12.096,290.062,12.496,290.062 M12.496,288.5c-0.447,0-0.902,0.024-1.354,0.074c-0.652,0.07-1.191,0.539-1.35,1.174
	l-0.621,2.486c-0.176,0.067-0.348,0.139-0.52,0.216l-2.197-1.318c-0.25-0.148-0.527-0.222-0.805-0.222
	c-0.348,0-0.695,0.116-0.979,0.344c-0.705,0.567-1.352,1.214-1.918,1.92c-0.41,0.51-0.459,1.222-0.123,1.783l1.318,2.197
	c-0.078,0.172-0.15,0.345-0.217,0.521l-2.484,0.621c-0.635,0.159-1.105,0.698-1.174,1.349C0.025,300.096,0,300.553,0,301
	c0,0.449,0.025,0.904,0.074,1.356c0.068,0.65,0.539,1.189,1.174,1.348l2.484,0.621c0.066,0.177,0.139,0.35,0.217,0.521l-1.318,2.198
	c-0.336,0.561-0.287,1.272,0.123,1.783c0.566,0.705,1.213,1.352,1.918,1.919c0.283,0.229,0.631,0.345,0.979,0.345
	c0.277,0,0.555-0.073,0.805-0.222l2.195-1.319c0.174,0.078,0.346,0.149,0.521,0.217l0.621,2.486c0.158,0.635,0.697,1.104,1.35,1.175
	c0.449,0.048,0.906,0.072,1.354,0.072c0.449,0,0.904-0.024,1.355-0.072c0.652-0.07,1.189-0.54,1.348-1.175l0.623-2.486
	c0.176-0.067,0.348-0.139,0.52-0.217l2.197,1.319c0.248,0.148,0.527,0.222,0.805,0.222c0.348,0,0.693-0.116,0.979-0.345
	c0.705-0.567,1.352-1.214,1.918-1.919c0.41-0.511,0.459-1.222,0.123-1.783l-1.318-2.197c0.078-0.172,0.148-0.345,0.217-0.521
	l2.484-0.621c0.635-0.158,1.104-0.697,1.174-1.348c0.049-0.452,0.074-0.907,0.074-1.356c0-0.447-0.025-0.904-0.074-1.355
	c-0.07-0.65-0.539-1.189-1.174-1.349l-2.484-0.621c-0.068-0.176-0.141-0.35-0.217-0.521l1.318-2.196
	c0.336-0.562,0.287-1.273-0.123-1.783c-0.566-0.705-1.213-1.352-1.918-1.92c-0.285-0.228-0.631-0.344-0.979-0.344
	c-0.277,0-0.557,0.073-0.805,0.222l-2.197,1.318c-0.172-0.077-0.344-0.148-0.52-0.216l-0.623-2.486
	c-0.158-0.635-0.695-1.104-1.348-1.174C13.4,288.524,12.945,288.5,12.496,288.5L12.496,288.5z"/>
<path fill="#889FA1" d="M12.496,269.095c2.158,0,3.906,1.748,3.906,3.905c0,2.158-1.748,3.907-3.906,3.907
	c-2.156,0-3.904-1.749-3.904-3.907C8.592,270.843,10.34,269.095,12.496,269.095 M12.496,268.312c-2.584,0-4.686,2.104-4.686,4.688
	c0,2.585,2.102,4.688,4.686,4.688s4.688-2.103,4.688-4.688C17.184,270.416,15.08,268.312,12.496,268.312L12.496,268.312z
	 M12.496,262.062c0.402,0,0.797,0.022,1.188,0.065l0.832,3.325c0.67,0.179,1.303,0.444,1.889,0.783l2.939-1.764
	c0.617,0.497,1.182,1.061,1.678,1.681l-1.762,2.939c0.338,0.586,0.604,1.219,0.783,1.889l3.324,0.831
	c0.043,0.391,0.064,0.786,0.064,1.188c0,0.402-0.021,0.798-0.064,1.188l-3.324,0.832c-0.18,0.67-0.445,1.303-0.783,1.888
	l1.764,2.941c-0.498,0.618-1.062,1.183-1.68,1.68l-2.939-1.764c-0.586,0.339-1.219,0.605-1.889,0.783l-0.832,3.326
	c-0.391,0.042-0.785,0.064-1.188,0.064c-0.4,0-0.797-0.022-1.188-0.064l-0.83-3.326c-0.67-0.178-1.303-0.444-1.889-0.783
	l-2.939,1.764c-0.619-0.497-1.182-1.062-1.68-1.68l1.764-2.941c-0.34-0.586-0.604-1.218-0.783-1.888l-3.324-0.832
	c-0.043-0.39-0.064-0.785-0.064-1.188c0-0.401,0.021-0.797,0.064-1.188l3.324-0.831c0.18-0.67,0.443-1.303,0.783-1.889l-1.764-2.939
	c0.498-0.62,1.061-1.184,1.68-1.681l2.939,1.764c0.586-0.339,1.219-0.604,1.889-0.783l0.83-3.325
	C11.699,262.085,12.096,262.062,12.496,262.062 M12.496,260.5c-0.447,0-0.902,0.024-1.354,0.074c-0.652,0.07-1.191,0.539-1.35,1.174
	l-0.621,2.486c-0.176,0.067-0.348,0.139-0.52,0.216l-2.197-1.318c-0.25-0.148-0.527-0.222-0.805-0.222
	c-0.348,0-0.695,0.116-0.979,0.344c-0.705,0.567-1.352,1.214-1.918,1.92c-0.41,0.51-0.459,1.222-0.123,1.783l1.318,2.197
	c-0.078,0.172-0.15,0.345-0.217,0.521l-2.484,0.621c-0.635,0.159-1.105,0.698-1.174,1.349C0.025,272.096,0,272.553,0,273
	c0,0.449,0.025,0.904,0.074,1.356c0.068,0.65,0.539,1.189,1.174,1.348l2.484,0.621c0.066,0.177,0.139,0.35,0.217,0.521l-1.318,2.198
	c-0.336,0.561-0.287,1.272,0.123,1.783c0.566,0.705,1.213,1.352,1.918,1.919c0.283,0.229,0.631,0.345,0.979,0.345
	c0.277,0,0.555-0.073,0.805-0.222l2.195-1.319c0.174,0.078,0.346,0.149,0.521,0.217l0.621,2.486c0.158,0.635,0.697,1.104,1.35,1.175
	c0.449,0.048,0.906,0.072,1.354,0.072c0.449,0,0.904-0.024,1.355-0.072c0.652-0.07,1.189-0.54,1.348-1.175l0.623-2.486
	c0.176-0.067,0.348-0.139,0.52-0.217l2.197,1.319c0.248,0.148,0.527,0.222,0.805,0.222c0.348,0,0.693-0.116,0.979-0.345
	c0.705-0.567,1.352-1.214,1.918-1.919c0.41-0.511,0.459-1.222,0.123-1.783l-1.318-2.197c0.078-0.172,0.148-0.345,0.217-0.521
	l2.484-0.621c0.635-0.158,1.104-0.697,1.174-1.348c0.049-0.452,0.074-0.907,0.074-1.356c0-0.447-0.025-0.904-0.074-1.355
	c-0.07-0.65-0.539-1.189-1.174-1.349l-2.484-0.621c-0.068-0.176-0.141-0.35-0.217-0.521l1.318-2.196
	c0.336-0.562,0.287-1.273-0.123-1.783c-0.566-0.705-1.213-1.352-1.918-1.92c-0.285-0.228-0.631-0.344-0.979-0.344
	c-0.277,0-0.557,0.073-0.805,0.222l-2.197,1.318c-0.172-0.077-0.344-0.148-0.52-0.216l-0.623-2.486
	c-0.158-0.635-0.695-1.104-1.348-1.174C13.4,260.524,12.945,260.5,12.496,260.5L12.496,260.5z"/>
<g>
	<path fill="#DB4B64" d="M28.371,407.963c-0.253,0.404-0.359,1.674-0.271,2.52c0.03,0.277,0.08,0.51,0.153,0.648
		c0.102,0.191,0.271,0.305,0.465,0.311c0.124,0.008,0.202-0.014,2.534-0.762c0,0,1.039-0.33,1.042-0.332
		c0.259-0.066,0.434-0.303,0.449-0.605c0.017-0.312-0.145-0.586-0.408-0.684l-0.732-0.297c-2.508-1.033-2.62-1.074-2.747-1.074
		C28.662,407.678,28.491,407.778,28.371,407.963"/>
	<path fill="#DB4B64" d="M33.981,415.651c0.041-0.119,0.046-0.197,0.052-2.645c0,0,0.006-1.08,0.007-1.09
		c0.016-0.266-0.154-0.506-0.437-0.615c-0.289-0.111-0.601-0.043-0.776,0.176c0,0-0.511,0.605-0.513,0.605
		c-1.759,2.059-1.831,2.154-1.875,2.275c-0.024,0.072-0.036,0.146-0.026,0.225c0.01,0.109,0.059,0.217,0.142,0.316
		c0.407,0.484,2.362,1.201,2.985,1.094C33.756,415.954,33.913,415.833,33.981,415.651"/>
	<path fill="#DB4B64" d="M37.944,414.799c0.589-0.234,1.874-1.865,1.965-2.492c0.031-0.219-0.037-0.406-0.188-0.527
		c-0.099-0.072-0.176-0.102-2.507-0.865c0,0-1.024-0.338-1.037-0.344c-0.247-0.096-0.53-0.008-0.721,0.227
		c-0.196,0.24-0.227,0.557-0.069,0.797l0.412,0.666c1.385,2.244,1.49,2.402,1.591,2.48C37.543,414.862,37.74,414.881,37.944,414.799
		"/>
	<path fill="#DB4B64" d="M36.739,409.026c2.651-0.639,2.753-0.674,2.858-0.742c0.16-0.107,0.241-0.287,0.227-0.508
		c0-0.008,0.001-0.014,0-0.023c-0.068-0.648-1.209-2.336-1.771-2.611c-0.199-0.094-0.398-0.088-0.562,0.021
		c-0.103,0.068-0.178,0.168-1.597,2.104c0,0-0.642,0.871-0.65,0.879c-0.168,0.205-0.171,0.5-0.006,0.75
		c0.171,0.264,0.46,0.391,0.726,0.316c0,0-0.011,0.018-0.015,0.021C36.081,409.184,36.314,409.125,36.739,409.026"/>
	<path fill="#DB4B64" d="M34.079,406.844L34.079,406.844c-0.047-1.047-0.361-5.713-0.399-5.93c-0.055-0.195-0.206-0.334-0.428-0.391
		c-0.677-0.168-3.263,0.557-3.742,1.049c-0.153,0.16-0.211,0.357-0.164,0.531c0.075,0.156,1.178,1.883,1.984,3.145l1.295,2.037
		c0.475,0.768,0.86,0.648,0.987,0.609C33.737,407.856,34.122,407.739,34.079,406.844"/>
	<path fill="#DB4B64" d="M1.257,417.901c0.334,0.307,0.967,0.395,1.735,0.238c0.72-0.141,1.166-0.461,1.597-1.824l2.141-6.709
		c0.11-0.355,0.103-0.664-0.024-0.895c-0.103-0.184-0.274-0.311-0.518-0.373c-0.382-0.105-0.857-0.094-1.157,0.928l-1.01,3.426
		l-0.114,0.379l-2.138-3.934l-0.008-0.016c0,0-0.143-0.361-0.145-0.361c-0.145-0.289-0.567-0.494-0.999-0.324
		c-0.562,0.213-0.749,0.717-0.525,1.367c0,0,2.784,5.648,2.79,5.664c0,0,0.076,0.201,0.076,0.234c0,0,0.024,0.154,0.024,0.158
		c-0.005,0.219-0.078,0.4-0.208,0.523c-0.128,0.119-0.308,0.184-0.516,0.174c0,0-0.434-0.008-0.467-0.008
		c-0.446,0.055-0.726,0.309-0.771,0.703C0.99,417.506,1.073,417.729,1.257,417.901"/>
	<path fill="#DB4B64" d="M14.056,411.022c-0.095-0.969-0.472-1.725-1.086-2.189c-0.655-0.494-1.582-0.654-2.68-0.457
		c-1.376,0.236-2.202,1.219-2.391,2.84c-0.233,1.938,0.086,3.398,0.928,4.223c0.633,0.625,1.57,0.873,2.711,0.721
		c1.626-0.229,2.357-1.119,2.357-1.682c0-0.414-0.251-0.74-0.62-0.789c-0.211-0.043-0.389,0-0.783,0.352
		c-0.568,0.492-1.226,0.691-1.81,0.545c-0.444-0.113-0.793-0.42-0.948-0.838c0,0-0.07-0.277-0.067-0.246
		c-0.047-0.25-0.068-0.498,0.086-0.6l0.042-0.027h3.571c0.329,0,0.496-0.043,0.593-0.146
		C14.156,412.51,14.139,411.889,14.056,411.022 M12.225,411.542h-2.98c-0.08-0.061-0.119-0.158-0.061-0.455
		c0.039-0.154,0.078-0.295,0.198-0.49c0.038-0.061,0.078-0.121,0.117-0.182c0.218-0.273,0.513-0.449,0.849-0.527
		c1.048-0.256,1.779,0.273,1.897,1.182C12.303,411.463,12.265,411.542,12.225,411.542"/>
	<path fill="#DB4B64" d="M17.293,405.895c-0.283-0.113-0.602-0.082-0.881,0.084c-0.27,0.158-0.381,0.4-0.381,0.836v8.496
		c0,0,0.047,0.305,0.051,0.316c0.061,0.211,0.219,0.393,0.436,0.492c0.241,0.111,0.521,0.109,0.77-0.008
		c0.312-0.133,0.496-0.445,0.496-0.83v-8.508c0,0-0.055-0.412-0.055-0.42C17.68,406.157,17.515,405.987,17.293,405.895"/>
	<path fill="#DB4B64" d="M24.122,408.288c-0.789-0.16-1.467-0.027-2.114,0.414c0,0-0.073,0.059-0.103,0.074l-0.058,0.031
		l-0.178,0.078l-0.05-0.199l-0.043-0.072l-0.015-0.045l-0.006-0.012c0,0-0.042-0.059-0.049-0.066
		c-0.187-0.291-0.694-0.426-1.151-0.164c-0.225,0.127-0.352,0.305-0.352,0.838v8.336c0,0.457,0.143,0.74,0.457,0.891
		c0.266,0.133,0.564,0.145,0.819,0.033c0.218-0.094,0.376-0.262,0.438-0.467l0.051-0.357v-1.441l-0.014-0.232l0.005-0.07
		l0.009-0.033l0.088-0.273l0.261,0.174c0,0,0.066,0.043,0.094,0.072l0.079,0.051c0.001,0.002,0.09,0.055,0.09,0.055
		c0.003,0,0.085,0.041,0.085,0.041c0.702,0.328,1.641,0.291,2.396-0.1c0.95-0.494,1.42-1.371,1.529-2.848
		C26.618,410.047,25.938,408.639,24.122,408.288 M24.036,414.526c-1.181,0-1.368-1.045-1.405-1.834
		c-0.002-0.002-0.015-0.461-0.015-0.461s0.013-0.342,0.013-0.355c0.076-1.363,0.359-1.9,1.08-2.051
		c0.485-0.111,0.855-0.059,1.134,0.166c0.417,0.334,0.602,1.043,0.584,2.229C25.415,413.604,25.173,414.526,24.036,414.526"/>
	<path fill="#DB4B64" d="M27.891,414.715c0.271,0,0.496,0.211,0.496,0.486c0,0.283-0.226,0.492-0.496,0.492
		c-0.269,0-0.495-0.209-0.495-0.486C27.396,414.926,27.623,414.715,27.891,414.715 M27.891,415.624c0.232,0,0.417-0.182,0.417-0.422
		c0-0.234-0.185-0.416-0.417-0.416c-0.23,0-0.416,0.182-0.416,0.422C27.475,415.442,27.661,415.624,27.891,415.624 M27.708,414.924
		h0.209c0.137,0,0.201,0.051,0.201,0.164c0,0.102-0.065,0.145-0.151,0.154l0.165,0.25h-0.086l-0.156-0.244h-0.103v0.244h-0.079
		V414.924z M27.787,415.178h0.099c0.079,0,0.152-0.004,0.152-0.094c0-0.08-0.066-0.088-0.127-0.088h-0.124V415.178z"/>
</g>
</svg>
